<?xml version="1.0" standalone="no"?>
<svg xmlns="http://www.w3.org/2000/svg" width="300" height="300"><defs><clipPath id="clip-path-dot-color"><path d="M 5 105v 10h 5a 5 5, 0, 0, 0, 0 -10" transform="rotate(180,10,110)"/><circle cx="10" cy="170" r="5" transform="rotate(0,10,170)"/><path d="M 5 185v 10h 5a 5 5, 0, 0, 0, 0 -10" transform="rotate(-90,10,190)"/><path d="M 5 195v 10h 5a 5 5, 0, 0, 0, 0 -10" transform="rotate(90,10,200)"/><rect x="15" y="105" width="10" height="10" transform="rotate(0,20,110)"/><path d="M 15 115v 10h 10v -5a 5 5, 0, 0, 0, -5 -5" transform="rotate(180,20,120)"/><path d="M 15 135v 10h 5a 5 5, 0, 0, 0, 0 -10" transform="rotate(-90,20,140)"/><path d="M 15 145v 10h 10v -5a 5 5, 0, 0, 0, -5 -5" transform="rotate(180,20,150)"/><path d="M 15 175v 10h 5a 5 5, 0, 0, 0, 0 -10" transform="rotate(180,20,180)"/><path d="M 15 205v 10h 5a 5 5, 0, 0, 0, 0 -10" transform="rotate(180,20,210)"/><circle cx="30" cy="90" r="5" transform="rotate(0,30,90)"/><rect x="25" y="105" width="10" height="10" transform="rotate(0,30,110)"/><rect x="25" y="115" width="10" height="10" transform="rotate(0,30,120)"/><path d="M 25 125v 10h 5a 5 5, 0, 0, 0, 0 -10" transform="rotate(90,30,130)"/><path d="M 25 145v 10h 10v -5a 5 5, 0, 0, 0, -5 -5" transform="rotate(0,30,150)"/><path d="M 25 155v 10h 10v -5a 5 5, 0, 0, 0, -5 -5" transform="rotate(180,30,160)"/><path d="M 25 175v 10h 5a 5 5, 0, 0, 0, 0 -10" transform="rotate(0,30,180)"/><path d="M 25 195v 10h 10v -5a 5 5, 0, 0, 0, -5 -5" transform="rotate(-90,30,200)"/><rect x="25" y="205" width="10" height="10" transform="rotate(0,30,210)"/><path d="M 35 95v 10h 5a 5 5, 0, 0, 0, 0 -10" transform="rotate(-90,40,100)"/><path d="M 35 105v 10h 10v -5a 5 5, 0, 0, 0, -5 -5" transform="rotate(90,40,110)"/><rect x="35" y="155" width="10" height="10" transform="rotate(0,40,160)"/><path d="M 35 165v 10h 10v -5a 5 5, 0, 0, 0, -5 -5" transform="rotate(180,40,170)"/><path d="M 35 185v 10h 10v -5a 5 5, 0, 0, 0, -5 -5" transform="rotate(-90,40,190)"/><rect x="35" y="195" width="10" height="10" transform="rotate(0,40,200)"/><path d="M 35 205v 10h 10v -5a 5 5, 0, 0, 0, -5 -5" transform="rotate(90,40,210)"/><path d="M 45 85v 10h 5a 5 5, 0, 0, 0, 0 -10" transform="rotate(180,50,90)"/><path d="M 45 145v 10h 5a 5 5, 0, 0, 0, 0 -10" transform="rotate(-90,50,150)"/><rect x="45" y="155" width="10" height="10" transform="rotate(0,50,160)"/><path d="M 45 165v 10h 10v -5a 5 5, 0, 0, 0, -5 -5" transform="rotate(90,50,170)"/><rect x="45" y="185" width="10" height="10" transform="rotate(0,50,190)"/><rect x="55" y="85" width="10" height="10" transform="rotate(0,60,90)"/><path d="M 55 95v 10h 5a 5 5, 0, 0, 0, 0 -10" transform="rotate(90,60,100)"/><path d="M 55 125v 10h 10v -5a 5 5, 0, 0, 0, -5 -5" transform="rotate(-90,60,130)"/><path d="M 55 135v 10h 5a 5 5, 0, 0, 0, 0 -10" transform="rotate(90,60,140)"/><rect x="55" y="185" width="10" height="10" transform="rotate(0,60,190)"/><rect x="55" y="195" width="10" height="10" transform="rotate(0,60,200)"/><path d="M 55 205v 10h 10v -5a 5 5, 0, 0, 0, -5 -5" transform="rotate(180,60,210)"/><path d="M 65 85v 10h 5a 5 5, 0, 0, 0, 0 -10" transform="rotate(0,70,90)"/><circle cx="70" cy="110" r="5" transform="rotate(0,70,110)"/><path d="M 65 125v 10h 5a 5 5, 0, 0, 0, 0 -10" transform="rotate(0,70,130)"/><path d="M 65 145v 10h 5a 5 5, 0, 0, 0, 0 -10" transform="rotate(180,70,150)"/><path d="M 65 165v 10h 5a 5 5, 0, 0, 0, 0 -10" transform="rotate(180,70,170)"/><rect x="65" y="185" width="10" height="10" transform="rotate(0,70,190)"/><path d="M 65 205v 10h 5a 5 5, 0, 0, 0, 0 -10" transform="rotate(0,70,210)"/><circle cx="80" cy="120" r="5" transform="rotate(0,80,120)"/><path d="M 75 145v 10h 10v -5a 5 5, 0, 0, 0, -5 -5" transform="rotate(0,80,150)"/><rect x="75" y="155" width="10" height="10" transform="rotate(0,80,160)"/><rect x="75" y="165" width="10" height="10" transform="rotate(0,80,170)"/><rect x="75" y="175" width="10" height="10" transform="rotate(0,80,180)"/><rect x="75" y="185" width="10" height="10" transform="rotate(0,80,190)"/><path d="M 85 15v 10h 5a 5 5, 0, 0, 0, 0 -10" transform="rotate(180,90,20)"/><circle cx="90" cy="50" r="5" transform="rotate(0,90,50)"/><circle cx="90" cy="70" r="5" transform="rotate(0,90,70)"/><path d="M 85 85v 10h 5a 5 5, 0, 0, 0, 0 -10" transform="rotate(180,90,90)"/><path d="M 85 105v 10h 5a 5 5, 0, 0, 0, 0 -10" transform="rotate(180,90,110)"/><path d="M 85 185v 10h 5a 5 5, 0, 0, 0, 0 -10" transform="rotate(0,90,190)"/><circle cx="90" cy="220" r="5" transform="rotate(0,90,220)"/><path d="M 85 235v 10h 5a 5 5, 0, 0, 0, 0 -10" transform="rotate(-90,90,240)"/><path d="M 85 245v 10h 10v -5a 5 5, 0, 0, 0, -5 -5" transform="rotate(180,90,250)"/><path d="M 85 265v 10h 5a 5 5, 0, 0, 0, 0 -10" transform="rotate(180,90,270)"/><path d="M 95 15v 10h 10v -5a 5 5, 0, 0, 0, -5 -5" transform="rotate(0,100,20)"/><path d="M 95 25v 10h 5a 5 5, 0, 0, 0, 0 -10" transform="rotate(90,100,30)"/><path d="M 95 55v 10h 5a 5 5, 0, 0, 0, 0 -10" transform="rotate(180,100,60)"/><path d="M 95 75v 10h 10v -5a 5 5, 0, 0, 0, -5 -5" transform="rotate(-90,100,80)"/><path d="M 95 85v 10h 10v -5a 5 5, 0, 0, 0, -5 -5" transform="rotate(90,100,90)"/><rect x="95" y="105" width="10" height="10" transform="rotate(0,100,110)"/><path d="M 95 125v 10h 10v -5a 5 5, 0, 0, 0, -5 -5" transform="rotate(-90,100,130)"/><path d="M 95 135v 10h 10v -5a 5 5, 0, 0, 0, -5 -5" transform="rotate(180,100,140)"/><path d="M 95 155v 10h 10v -5a 5 5, 0, 0, 0, -5 -5" transform="rotate(-90,100,160)"/><rect x="95" y="165" width="10" height="10" transform="rotate(0,100,170)"/><path d="M 95 175v 10h 10v -5a 5 5, 0, 0, 0, -5 -5" transform="rotate(180,100,180)"/><path d="M 95 195v 10h 5a 5 5, 0, 0, 0, 0 -10" transform="rotate(-90,100,200)"/><path d="M 95 205v 10h 10v -5a 5 5, 0, 0, 0, -5 -5" transform="rotate(180,100,210)"/><rect x="95" y="245" width="10" height="10" transform="rotate(0,100,250)"/><rect x="95" y="255" width="10" height="10" transform="rotate(0,100,260)"/><path d="M 95 265v 10h 10v -5a 5 5, 0, 0, 0, -5 -5" transform="rotate(90,100,270)"/><path d="M 95 285v 10h 5a 5 5, 0, 0, 0, 0 -10" transform="rotate(180,100,290)"/><path d="M 105 35v 10h 5a 5 5, 0, 0, 0, 0 -10" transform="rotate(180,110,40)"/><path d="M 105 55v 10h 10v -5a 5 5, 0, 0, 0, -5 -5" transform="rotate(0,110,60)"/><rect x="105" y="65" width="10" height="10" transform="rotate(0,110,70)"/><rect x="105" y="75" width="10" height="10" transform="rotate(0,110,80)"/><path d="M 105 95v 10h 5a 5 5, 0, 0, 0, 0 -10" transform="rotate(-90,110,100)"/><rect x="105" y="105" width="10" height="10" transform="rotate(0,110,110)"/><rect x="105" y="115" width="10" height="10" transform="rotate(0,110,120)"/><rect x="105" y="125" width="10" height="10" transform="rotate(0,110,130)"/><rect x="105" y="135" width="10" height="10" transform="rotate(0,110,140)"/><path d="M 105 155v 10h 10v -5a 5 5, 0, 0, 0, -5 -5" transform="rotate(0,110,160)"/><rect x="105" y="165" width="10" height="10" transform="rotate(0,110,170)"/><rect x="105" y="175" width="10" height="10" transform="rotate(0,110,180)"/><path d="M 105 205v 10h 5a 5 5, 0, 0, 0, 0 -10" transform="rotate(0,110,210)"/><path d="M 105 245v 10h 10v -5a 5 5, 0, 0, 0, -5 -5" transform="rotate(0,110,250)"/><path d="M 105 255v 10h 10v -5a 5 5, 0, 0, 0, -5 -5" transform="rotate(90,110,260)"/><rect x="105" y="285" width="10" height="10" transform="rotate(0,110,290)"/><path d="M 115 5v 10h 5a 5 5, 0, 0, 0, 0 -10" transform="rotate(-90,120,10)"/><rect x="115" y="15" width="10" height="10" transform="rotate(0,120,20)"/><rect x="115" y="25" width="10" height="10" transform="rotate(0,120,30)"/><rect x="115" y="35" width="10" height="10" transform="rotate(0,120,40)"/><path d="M 115 45v 10h 5a 5 5, 0, 0, 0, 0 -10" transform="rotate(90,120,50)"/><path d="M 115 75v 10h 10v -5a 5 5, 0, 0, 0, -5 -5" transform="rotate(0,120,80)"/><path d="M 115 85v 10h 5a 5 5, 0, 0, 0, 0 -10" transform="rotate(90,120,90)"/><path d="M 115 135v 10h 10v -5a 5 5, 0, 0, 0, -5 -5" transform="rotate(0,120,140)"/><path d="M 115 145v 10h 10v -5a 5 5, 0, 0, 0, -5 -5" transform="rotate(180,120,150)"/><path d="M 115 165v 10h 10v -5a 5 5, 0, 0, 0, -5 -5" transform="rotate(0,120,170)"/><rect x="115" y="175" width="10" height="10" transform="rotate(0,120,180)"/><path d="M 115 185v 10h 5a 5 5, 0, 0, 0, 0 -10" transform="rotate(90,120,190)"/><path d="M 115 215v 10h 10v -5a 5 5, 0, 0, 0, -5 -5" transform="rotate(-90,120,220)"/><path d="M 115 225v 10h 5a 5 5, 0, 0, 0, 0 -10" transform="rotate(90,120,230)"/><path d="M 115 275v 10h 10v -5a 5 5, 0, 0, 0, -5 -5" transform="rotate(-90,120,280)"/><path d="M 115 285v 10h 10v -5a 5 5, 0, 0, 0, -5 -5" transform="rotate(90,120,290)"/><path d="M 125 25v 10h 10v -5a 5 5, 0, 0, 0, -5 -5" transform="rotate(0,130,30)"/><path d="M 125 35v 10h 10v -5a 5 5, 0, 0, 0, -5 -5" transform="rotate(90,130,40)"/><path d="M 125 55v 10h 5a 5 5, 0, 0, 0, 0 -10" transform="rotate(-90,130,60)"/><path d="M 125 65v 10h 5a 5 5, 0, 0, 0, 0 -10" transform="rotate(90,130,70)"/><path d="M 125 125v 10h 5a 5 5, 0, 0, 0, 0 -10" transform="rotate(180,130,130)"/><path d="M 125 145v 10h 5a 5 5, 0, 0, 0, 0 -10" transform="rotate(0,130,150)"/><rect x="125" y="175" width="10" height="10" transform="rotate(0,130,180)"/><circle cx="130" cy="200" r="5" transform="rotate(0,130,200)"/><path d="M 125 215v 10h 5a 5 5, 0, 0, 0, 0 -10" transform="rotate(0,130,220)"/><circle cx="130" cy="260" r="5" transform="rotate(0,130,260)"/><path d="M 125 275v 10h 5a 5 5, 0, 0, 0, 0 -10" transform="rotate(0,130,280)"/><path d="M 135 5v 10h 10v -5a 5 5, 0, 0, 0, -5 -5" transform="rotate(-90,140,10)"/><path d="M 135 15v 10h 5a 5 5, 0, 0, 0, 0 -10" transform="rotate(90,140,20)"/><path d="M 135 85v 10h 5a 5 5, 0, 0, 0, 0 -10" transform="rotate(180,140,90)"/><path d="M 135 105v 10h 5a 5 5, 0, 0, 0, 0 -10" transform="rotate(180,140,110)"/><rect x="135" y="125" width="10" height="10" transform="rotate(0,140,130)"/><path d="M 135 135v 10h 10v -5a 5 5, 0, 0, 0, -5 -5" transform="rotate(180,140,140)"/><path d="M 135 155v 10h 10v -5a 5 5, 0, 0, 0, -5 -5" transform="rotate(-90,140,160)"/><rect x="135" y="165" width="10" height="10" transform="rotate(0,140,170)"/><rect x="135" y="175" width="10" height="10" transform="rotate(0,140,180)"/><path d="M 135 185v 10h 10v -5a 5 5, 0, 0, 0, -5 -5" transform="rotate(180,140,190)"/><path d="M 135 225v 10h 5a 5 5, 0, 0, 0, 0 -10" transform="rotate(-90,140,230)"/><rect x="135" y="235" width="10" height="10" transform="rotate(0,140,240)"/><path d="M 135 245v 10h 5a 5 5, 0, 0, 0, 0 -10" transform="rotate(90,140,250)"/><circle cx="140" cy="270" r="5" transform="rotate(0,140,270)"/><path d="M 135 285v 10h 5a 5 5, 0, 0, 0, 0 -10" transform="rotate(180,140,290)"/><path d="M 145 5v 10h 5a 5 5, 0, 0, 0, 0 -10" transform="rotate(0,150,10)"/><circle cx="150" cy="30" r="5" transform="rotate(0,150,30)"/><path d="M 145 45v 10h 5a 5 5, 0, 0, 0, 0 -10" transform="rotate(180,150,50)"/><circle cx="150" cy="70" r="5" transform="rotate(0,150,70)"/><path d="M 145 85v 10h 10v -5a 5 5, 0, 0, 0, -5 -5" transform="rotate(0,150,90)"/><rect x="145" y="95" width="10" height="10" transform="rotate(0,150,100)"/><path d="M 145 105v 10h 10v -5a 5 5, 0, 0, 0, -5 -5" transform="rotate(90,150,110)"/><rect x="145" y="125" width="10" height="10" transform="rotate(0,150,130)"/><path d="M 145 135v 10h 10v -5a 5 5, 0, 0, 0, -5 -5" transform="rotate(90,150,140)"/><path d="M 145 155v 10h 10v -5a 5 5, 0, 0, 0, -5 -5" transform="rotate(0,150,160)"/><rect x="145" y="165" width="10" height="10" transform="rotate(0,150,170)"/><path d="M 145 185v 10h 5a 5 5, 0, 0, 0, 0 -10" transform="rotate(0,150,190)"/><path d="M 145 205v 10h 5a 5 5, 0, 0, 0, 0 -10" transform="rotate(180,150,210)"/><rect x="145" y="235" width="10" height="10" transform="rotate(0,150,240)"/><path d="M 145 255v 10h 5a 5 5, 0, 0, 0, 0 -10" transform="rotate(180,150,260)"/><rect x="145" y="285" width="10" height="10" transform="rotate(0,150,290)"/><path d="M 155 15v 10h 5a 5 5, 0, 0, 0, 0 -10" transform="rotate(180,160,20)"/><path d="M 155 35v 10h 10v -5a 5 5, 0, 0, 0, -5 -5" transform="rotate(-90,160,40)"/><rect x="155" y="45" width="10" height="10" transform="rotate(0,160,50)"/><path d="M 155 95v 10h 5a 5 5, 0, 0, 0, 0 -10" transform="rotate(0,160,100)"/><path d="M 155 125v 10h 5a 5 5, 0, 0, 0, 0 -10" transform="rotate(0,160,130)"/><circle cx="160" cy="150" r="5" transform="rotate(0,160,150)"/><rect x="155" y="165" width="10" height="10" transform="rotate(0,160,170)"/><rect x="155" y="205" width="10" height="10" transform="rotate(0,160,210)"/><path d="M 155 215v 10h 10v -5a 5 5, 0, 0, 0, -5 -5" transform="rotate(180,160,220)"/><path d="M 155 235v 10h 5a 5 5, 0, 0, 0, 0 -10" transform="rotate(0,160,240)"/><rect x="155" y="255" width="10" height="10" transform="rotate(0,160,260)"/><rect x="155" y="285" width="10" height="10" transform="rotate(0,160,290)"/><rect x="165" y="15" width="10" height="10" transform="rotate(0,170,20)"/><rect x="165" y="25" width="10" height="10" transform="rotate(0,170,30)"/><rect x="165" y="35" width="10" height="10" transform="rotate(0,170,40)"/><rect x="165" y="45" width="10" height="10" transform="rotate(0,170,50)"/><rect x="165" y="55" width="10" height="10" transform="rotate(0,170,60)"/><path d="M 165 65v 10h 5a 5 5, 0, 0, 0, 0 -10" transform="rotate(90,170,70)"/><path d="M 165 85v 10h 5a 5 5, 0, 0, 0, 0 -10" transform="rotate(180,170,90)"/><path d="M 165 105v 10h 10v -5a 5 5, 0, 0, 0, -5 -5" transform="rotate(-90,170,110)"/><path d="M 165 115v 10h 5a 5 5, 0, 0, 0, 0 -10" transform="rotate(90,170,120)"/><path d="M 165 135v 10h 5a 5 5, 0, 0, 0, 0 -10" transform="rotate(180,170,140)"/><path d="M 165 165v 10h 5a 5 5, 0, 0, 0, 0 -10" transform="rotate(0,170,170)"/><path d="M 165 195v 10h 10v -5a 5 5, 0, 0, 0, -5 -5" transform="rotate(-90,170,200)"/><rect x="165" y="205" width="10" height="10" transform="rotate(0,170,210)"/><rect x="165" y="215" width="10" height="10" transform="rotate(0,170,220)"/><path d="M 165 225v 10h 5a 5 5, 0, 0, 0, 0 -10" transform="rotate(90,170,230)"/><path d="M 165 255v 10h 5a 5 5, 0, 0, 0, 0 -10" transform="rotate(0,170,260)"/><rect x="165" y="285" width="10" height="10" transform="rotate(0,170,290)"/><path d="M 175 5v 10h 5a 5 5, 0, 0, 0, 0 -10" transform="rotate(-90,180,10)"/><path d="M 175 15v 10h 10v -5a 5 5, 0, 0, 0, -5 -5" transform="rotate(90,180,20)"/><path d="M 175 35v 10h 10v -5a 5 5, 0, 0, 0, -5 -5" transform="rotate(0,180,40)"/><path d="M 175 45v 10h 10v -5a 5 5, 0, 0, 0, -5 -5" transform="rotate(90,180,50)"/><path d="M 175 85v 10h 10v -5a 5 5, 0, 0, 0, -5 -5" transform="rotate(0,180,90)"/><rect x="175" y="95" width="10" height="10" transform="rotate(0,180,100)"/><path d="M 175 105v 10h 10v -5a 5 5, 0, 0, 0, -5 -5" transform="rotate(90,180,110)"/><rect x="175" y="135" width="10" height="10" transform="rotate(0,180,140)"/><path d="M 175 145v 10h 5a 5 5, 0, 0, 0, 0 -10" transform="rotate(90,180,150)"/><path d="M 175 185v 10h 5a 5 5, 0, 0, 0, 0 -10" transform="rotate(-90,180,190)"/><rect x="175" y="195" width="10" height="10" transform="rotate(0,180,200)"/><path d="M 175 235v 10h 10v -5a 5 5, 0, 0, 0, -5 -5" transform="rotate(-90,180,240)"/><path d="M 175 245v 10h 10v -5a 5 5, 0, 0, 0, -5 -5" transform="rotate(180,180,250)"/><path d="M 175 275v 10h 5a 5 5, 0, 0, 0, 0 -10" transform="rotate(-90,180,280)"/><rect x="175" y="285" width="10" height="10" transform="rotate(0,180,290)"/><path d="M 185 65v 10h 5a 5 5, 0, 0, 0, 0 -10" transform="rotate(-90,190,70)"/><path d="M 185 75v 10h 10v -5a 5 5, 0, 0, 0, -5 -5" transform="rotate(180,190,80)"/><path d="M 185 115v 10h 10v -5a 5 5, 0, 0, 0, -5 -5" transform="rotate(-90,190,120)"/><rect x="185" y="125" width="10" height="10" transform="rotate(0,190,130)"/><rect x="185" y="135" width="10" height="10" transform="rotate(0,190,140)"/><path d="M 185 155v 10h 5a 5 5, 0, 0, 0, 0 -10" transform="rotate(180,190,160)"/><rect x="185" y="195" width="10" height="10" transform="rotate(0,190,200)"/><circle cx="190" cy="220" r="5" transform="rotate(0,190,220)"/><rect x="185" y="235" width="10" height="10" transform="rotate(0,190,240)"/><path d="M 185 245v 10h 10v -5a 5 5, 0, 0, 0, -5 -5" transform="rotate(90,190,250)"/><circle cx="190" cy="270" r="5" transform="rotate(0,190,270)"/><path d="M 185 285v 10h 5a 5 5, 0, 0, 0, 0 -10" transform="rotate(0,190,290)"/><path d="M 195 25v 10h 10v -5a 5 5, 0, 0, 0, -5 -5" transform="rotate(-90,200,30)"/><path d="M 195 35v 10h 5a 5 5, 0, 0, 0, 0 -10" transform="rotate(90,200,40)"/><path d="M 195 55v 10h 5a 5 5, 0, 0, 0, 0 -10" transform="rotate(180,200,60)"/><path d="M 195 75v 10h 5a 5 5, 0, 0, 0, 0 -10" transform="rotate(0,200,80)"/><path d="M 195 115v 10h 10v -5a 5 5, 0, 0, 0, -5 -5" transform="rotate(0,200,120)"/><rect x="195" y="125" width="10" height="10" transform="rotate(0,200,130)"/><rect x="195" y="135" width="10" height="10" transform="rotate(0,200,140)"/><rect x="195" y="145" width="10" height="10" transform="rotate(0,200,150)"/><rect x="195" y="155" width="10" height="10" transform="rotate(0,200,160)"/><rect x="195" y="165" width="10" height="10" transform="rotate(0,200,170)"/><rect x="195" y="175" width="10" height="10" transform="rotate(0,200,180)"/><rect x="195" y="185" width="10" height="10" transform="rotate(0,200,190)"/><rect x="195" y="195" width="10" height="10" transform="rotate(0,200,200)"/><path d="M 195 205v 10h 10v -5a 5 5, 0, 0, 0, -5 -5" transform="rotate(180,200,210)"/><path d="M 195 225v 10h 10v -5a 5 5, 0, 0, 0, -5 -5" transform="rotate(-90,200,230)"/><rect x="195" y="235" width="10" height="10" transform="rotate(0,200,240)"/><path d="M 195 255v 10h 5a 5 5, 0, 0, 0, 0 -10" transform="rotate(180,200,260)"/><path d="M 195 275v 10h 5a 5 5, 0, 0, 0, 0 -10" transform="rotate(180,200,280)"/><path d="M 205 5v 10h 5a 5 5, 0, 0, 0, 0 -10" transform="rotate(-90,210,10)"/><rect x="205" y="15" width="10" height="10" transform="rotate(0,210,20)"/><path d="M 205 25v 10h 10v -5a 5 5, 0, 0, 0, -5 -5" transform="rotate(90,210,30)"/><path d="M 205 55v 10h 10v -5a 5 5, 0, 0, 0, -5 -5" transform="rotate(0,210,60)"/><path d="M 205 65v 10h 5a 5 5, 0, 0, 0, 0 -10" transform="rotate(90,210,70)"/><path d="M 205 95v 10h 5a 5 5, 0, 0, 0, 0 -10" transform="rotate(-90,210,100)"/><path d="M 205 105v 10h 10v -5a 5 5, 0, 0, 0, -5 -5" transform="rotate(180,210,110)"/><path d="M 205 135v 10h 10v -5a 5 5, 0, 0, 0, -5 -5" transform="rotate(0,210,140)"/><path d="M 205 145v 10h 10v -5a 5 5, 0, 0, 0, -5 -5" transform="rotate(90,210,150)"/><rect x="205" y="165" width="10" height="10" transform="rotate(0,210,170)"/><path d="M 205 175v 10h 10v -5a 5 5, 0, 0, 0, -5 -5" transform="rotate(90,210,180)"/><rect x="205" y="205" width="10" height="10" transform="rotate(0,210,210)"/><rect x="205" y="215" width="10" height="10" transform="rotate(0,210,220)"/><rect x="205" y="225" width="10" height="10" transform="rotate(0,210,230)"/><rect x="205" y="235" width="10" height="10" transform="rotate(0,210,240)"/><rect x="205" y="245" width="10" height="10" transform="rotate(0,210,250)"/><rect x="205" y="255" width="10" height="10" transform="rotate(0,210,260)"/><path d="M 205 275v 10h 5a 5 5, 0, 0, 0, 0 -10" transform="rotate(0,210,280)"/><circle cx="220" cy="90" r="5" transform="rotate(0,220,90)"/><rect x="215" y="105" width="10" height="10" transform="rotate(0,220,110)"/><rect x="215" y="115" width="10" height="10" transform="rotate(0,220,120)"/><path d="M 215 125v 10h 10v -5a 5 5, 0, 0, 0, -5 -5" transform="rotate(180,220,130)"/><path d="M 215 155v 10h 10v -5a 5 5, 0, 0, 0, -5 -5" transform="rotate(-90,220,160)"/><path d="M 215 165v 10h 10v -5a 5 5, 0, 0, 0, -5 -5" transform="rotate(90,220,170)"/><rect x="215" y="205" width="10" height="10" transform="rotate(0,220,210)"/><rect x="215" y="245" width="10" height="10" transform="rotate(0,220,250)"/><rect x="215" y="255" width="10" height="10" transform="rotate(0,220,260)"/><path d="M 215 265v 10h 5a 5 5, 0, 0, 0, 0 -10" transform="rotate(90,220,270)"/><path d="M 215 285v 10h 5a 5 5, 0, 0, 0, 0 -10" transform="rotate(180,220,290)"/><rect x="225" y="105" width="10" height="10" transform="rotate(0,230,110)"/><path d="M 225 125v 10h 5a 5 5, 0, 0, 0, 0 -10" transform="rotate(0,230,130)"/><path d="M 225 155v 10h 5a 5 5, 0, 0, 0, 0 -10" transform="rotate(0,230,160)"/><path d="M 225 175v 10h 5a 5 5, 0, 0, 0, 0 -10" transform="rotate(180,230,180)"/><path d="M 225 195v 10h 10v -5a 5 5, 0, 0, 0, -5 -5" transform="rotate(-90,230,200)"/><rect x="225" y="205" width="10" height="10" transform="rotate(0,230,210)"/><circle cx="230" cy="230" r="5" transform="rotate(0,230,230)"/><rect x="225" y="245" width="10" height="10" transform="rotate(0,230,250)"/><rect x="225" y="255" width="10" height="10" transform="rotate(0,230,260)"/><path d="M 225 285v 10h 5a 5 5, 0, 0, 0, 0 -10" transform="rotate(0,230,290)"/><path d="M 235 105v 10h 10v -5a 5 5, 0, 0, 0, -5 -5" transform="rotate(0,240,110)"/><path d="M 235 115v 10h 5a 5 5, 0, 0, 0, 0 -10" transform="rotate(90,240,120)"/><path d="M 235 135v 10h 5a 5 5, 0, 0, 0, 0 -10" transform="rotate(180,240,140)"/><path d="M 235 175v 10h 10v -5a 5 5, 0, 0, 0, -5 -5" transform="rotate(0,240,180)"/><rect x="235" y="185" width="10" height="10" transform="rotate(0,240,190)"/><rect x="235" y="195" width="10" height="10" transform="rotate(0,240,200)"/><rect x="235" y="205" width="10" height="10" transform="rotate(0,240,210)"/><rect x="235" y="245" width="10" height="10" transform="rotate(0,240,250)"/><rect x="235" y="255" width="10" height="10" transform="rotate(0,240,260)"/><circle cx="240" cy="280" r="5" transform="rotate(0,240,280)"/><path d="M 245 85v 10h 5a 5 5, 0, 0, 0, 0 -10" transform="rotate(-90,250,90)"/><path d="M 245 95v 10h 10v -5a 5 5, 0, 0, 0, -5 -5" transform="rotate(180,250,100)"/><rect x="245" y="135" width="10" height="10" transform="rotate(0,250,140)"/><rect x="245" y="145" width="10" height="10" transform="rotate(0,250,150)"/><path d="M 245 155v 10h 5a 5 5, 0, 0, 0, 0 -10" transform="rotate(90,250,160)"/><path d="M 245 185v 10h 10v -5a 5 5, 0, 0, 0, -5 -5" transform="rotate(0,250,190)"/><rect x="245" y="195" width="10" height="10" transform="rotate(0,250,200)"/><rect x="245" y="205" width="10" height="10" transform="rotate(0,250,210)"/><rect x="245" y="215" width="10" height="10" transform="rotate(0,250,220)"/><rect x="245" y="225" width="10" height="10" transform="rotate(0,250,230)"/><rect x="245" y="235" width="10" height="10" transform="rotate(0,250,240)"/><rect x="245" y="245" width="10" height="10" transform="rotate(0,250,250)"/><path d="M 245 255v 10h 10v -5a 5 5, 0, 0, 0, -5 -5" transform="rotate(90,250,260)"/><rect x="255" y="95" width="10" height="10" transform="rotate(0,260,100)"/><path d="M 255 115v 10h 5a 5 5, 0, 0, 0, 0 -10" transform="rotate(-90,260,120)"/><rect x="255" y="125" width="10" height="10" transform="rotate(0,260,130)"/><rect x="255" y="135" width="10" height="10" transform="rotate(0,260,140)"/><path d="M 255 145v 10h 10v -5a 5 5, 0, 0, 0, -5 -5" transform="rotate(90,260,150)"/><path d="M 255 165v 10h 5a 5 5, 0, 0, 0, 0 -10" transform="rotate(180,260,170)"/><rect x="255" y="195" width="10" height="10" transform="rotate(0,260,200)"/><rect x="255" y="215" width="10" height="10" transform="rotate(0,260,220)"/><path d="M 255 245v 10h 5a 5 5, 0, 0, 0, 0 -10" transform="rotate(0,260,250)"/><path d="M 255 275v 10h 5a 5 5, 0, 0, 0, 0 -10" transform="rotate(180,260,280)"/><path d="M 265 95v 10h 5a 5 5, 0, 0, 0, 0 -10" transform="rotate(0,270,100)"/><path d="M 265 125v 10h 5a 5 5, 0, 0, 0, 0 -10" transform="rotate(0,270,130)"/><path d="M 265 165v 10h 10v -5a 5 5, 0, 0, 0, -5 -5" transform="rotate(0,270,170)"/><rect x="265" y="175" width="10" height="10" transform="rotate(0,270,180)"/><rect x="265" y="185" width="10" height="10" transform="rotate(0,270,190)"/><rect x="265" y="195" width="10" height="10" transform="rotate(0,270,200)"/><rect x="265" y="205" width="10" height="10" transform="rotate(0,270,210)"/><rect x="265" y="215" width="10" height="10" transform="rotate(0,270,220)"/><path d="M 265 255v 10h 10v -5a 5 5, 0, 0, 0, -5 -5" transform="rotate(-90,270,260)"/><rect x="265" y="265" width="10" height="10" transform="rotate(0,270,270)"/><rect x="265" y="275" width="10" height="10" transform="rotate(0,270,280)"/><path d="M 265 285v 10h 10v -5a 5 5, 0, 0, 0, -5 -5" transform="rotate(180,270,290)"/><circle cx="280" cy="90" r="5" transform="rotate(0,280,90)"/><path d="M 275 115v 10h 5a 5 5, 0, 0, 0, 0 -10" transform="rotate(180,280,120)"/><circle cx="280" cy="140" r="5" transform="rotate(0,280,140)"/><rect x="275" y="175" width="10" height="10" transform="rotate(0,280,180)"/><rect x="275" y="195" width="10" height="10" transform="rotate(0,280,200)"/><rect x="275" y="215" width="10" height="10" transform="rotate(0,280,220)"/><path d="M 275 225v 10h 5a 5 5, 0, 0, 0, 0 -10" transform="rotate(90,280,230)"/><path d="M 275 255v 10h 5a 5 5, 0, 0, 0, 0 -10" transform="rotate(0,280,260)"/><rect x="275" y="275" width="10" height="10" transform="rotate(0,280,280)"/><path d="M 275 285v 10h 10v -5a 5 5, 0, 0, 0, -5 -5" transform="rotate(90,280,290)"/><path d="M 285 115v 10h 5a 5 5, 0, 0, 0, 0 -10" transform="rotate(0,290,120)"/><circle cx="290" cy="160" r="5" transform="rotate(0,290,160)"/><path d="M 285 175v 10h 5a 5 5, 0, 0, 0, 0 -10" transform="rotate(0,290,180)"/><path d="M 285 195v 10h 10v -5a 5 5, 0, 0, 0, -5 -5" transform="rotate(0,290,200)"/><rect x="285" y="205" width="10" height="10" transform="rotate(0,290,210)"/><path d="M 285 215v 10h 10v -5a 5 5, 0, 0, 0, -5 -5" transform="rotate(90,290,220)"/><circle cx="290" cy="240" r="5" transform="rotate(0,290,240)"/><path d="M 285 275v 10h 5a 5 5, 0, 0, 0, 0 -10" transform="rotate(0,290,280)"/><path clip-rule="evenodd" d="M 5 30v 20a 25 25, 0, 0, 0, 25 25h 20a 25 25, 0, 0, 0, 25 -25v -20a 25 25, 0, 0, 0, -25 -25h -20a 25 25, 0, 0, 0, -25 25M 30 15h 20a 15 15, 0, 0, 1, 15 15v 20a 15 15, 0, 0, 1, -15 15h -20a 15 15, 0, 0, 1, -15 -15v -20a 15 15, 0, 0, 1, 15 -15" transform="rotate(0,40,40)"/><path d="M 25 25v 10h 10v -5a 5 5, 0, 0, 0, -5 -5" transform="rotate(-90,30,30)"/><rect x="25" y="35" width="10" height="10" transform="rotate(0,30,40)"/><path d="M 25 45v 10h 10v -5a 5 5, 0, 0, 0, -5 -5" transform="rotate(180,30,50)"/><rect x="35" y="25" width="10" height="10" transform="rotate(0,40,30)"/><rect x="35" y="35" width="10" height="10" transform="rotate(0,40,40)"/><rect x="35" y="45" width="10" height="10" transform="rotate(0,40,50)"/><path d="M 45 25v 10h 10v -5a 5 5, 0, 0, 0, -5 -5" transform="rotate(0,50,30)"/><rect x="45" y="35" width="10" height="10" transform="rotate(0,50,40)"/><path d="M 45 45v 10h 10v -5a 5 5, 0, 0, 0, -5 -5" transform="rotate(90,50,50)"/><path clip-rule="evenodd" d="M 225 30v 20a 25 25, 0, 0, 0, 25 25h 20a 25 25, 0, 0, 0, 25 -25v -20a 25 25, 0, 0, 0, -25 -25h -20a 25 25, 0, 0, 0, -25 25M 250 15h 20a 15 15, 0, 0, 1, 15 15v 20a 15 15, 0, 0, 1, -15 15h -20a 15 15, 0, 0, 1, -15 -15v -20a 15 15, 0, 0, 1, 15 -15" transform="rotate(90,260,40)"/><path d="M 245 25v 10h 10v -5a 5 5, 0, 0, 0, -5 -5" transform="rotate(-90,250,30)"/><rect x="245" y="35" width="10" height="10" transform="rotate(0,250,40)"/><path d="M 245 45v 10h 10v -5a 5 5, 0, 0, 0, -5 -5" transform="rotate(180,250,50)"/><rect x="255" y="25" width="10" height="10" transform="rotate(0,260,30)"/><rect x="255" y="35" width="10" height="10" transform="rotate(0,260,40)"/><rect x="255" y="45" width="10" height="10" transform="rotate(0,260,50)"/><path d="M 265 25v 10h 10v -5a 5 5, 0, 0, 0, -5 -5" transform="rotate(0,270,30)"/><rect x="265" y="35" width="10" height="10" transform="rotate(0,270,40)"/><path d="M 265 45v 10h 10v -5a 5 5, 0, 0, 0, -5 -5" transform="rotate(90,270,50)"/><path clip-rule="evenodd" d="M 5 250v 20a 25 25, 0, 0, 0, 25 25h 20a 25 25, 0, 0, 0, 25 -25v -20a 25 25, 0, 0, 0, -25 -25h -20a 25 25, 0, 0, 0, -25 25M 30 235h 20a 15 15, 0, 0, 1, 15 15v 20a 15 15, 0, 0, 1, -15 15h -20a 15 15, 0, 0, 1, -15 -15v -20a 15 15, 0, 0, 1, 15 -15" transform="rotate(-90,40,260)"/><path d="M 25 245v 10h 10v -5a 5 5, 0, 0, 0, -5 -5" transform="rotate(-90,30,250)"/><rect x="25" y="255" width="10" height="10" transform="rotate(0,30,260)"/><path d="M 25 265v 10h 10v -5a 5 5, 0, 0, 0, -5 -5" transform="rotate(180,30,270)"/><rect x="35" y="245" width="10" height="10" transform="rotate(0,40,250)"/><rect x="35" y="255" width="10" height="10" transform="rotate(0,40,260)"/><rect x="35" y="265" width="10" height="10" transform="rotate(0,40,270)"/><path d="M 45 245v 10h 10v -5a 5 5, 0, 0, 0, -5 -5" transform="rotate(0,50,250)"/><rect x="45" y="255" width="10" height="10" transform="rotate(0,50,260)"/><path d="M 45 265v 10h 10v -5a 5 5, 0, 0, 0, -5 -5" transform="rotate(90,50,270)"/></clipPath></defs><rect x="0" y="0" height="300" width="300" clip-path="url('#clip-path-background-color')" fill="#fff"/><rect x="5" y="5" height="290" width="290" clip-path="url('#clip-path-dot-color')" fill="#000"/></svg>