<?xml version="1.0" standalone="no"?>
<svg xmlns="http://www.w3.org/2000/svg" width="300" height="300"><defs><clipPath id="clip-path-dot-color"><path d="M 2 90v 8h 4a 4 4, 0, 0, 0, 0 -8" transform="rotate(-90,6,94)"/><path d="M 2 98v 8h 8v -4a 4 4, 0, 0, 0, -4 -4" transform="rotate(180,6,102)"/><path d="M 2 146v 8h 4a 4 4, 0, 0, 0, 0 -8" transform="rotate(-90,6,150)"/><path d="M 2 154v 8h 8v -4a 4 4, 0, 0, 0, -4 -4" transform="rotate(180,6,158)"/><path d="M 2 170v 8h 8v -4a 4 4, 0, 0, 0, -4 -4" transform="rotate(-90,6,174)"/><path d="M 2 178v 8h 8v -4a 4 4, 0, 0, 0, -4 -4" transform="rotate(180,6,182)"/><path d="M 2 194v 8h 4a 4 4, 0, 0, 0, 0 -8" transform="rotate(-90,6,198)"/><rect x="2" y="202" width="8" height="8" transform="rotate(0,6,206)"/><rect x="2" y="210" width="8" height="8" transform="rotate(0,6,214)"/><path d="M 2 218v 8h 4a 4 4, 0, 0, 0, 0 -8" transform="rotate(90,6,222)"/><circle cx="14" cy="78" r="4" transform="rotate(0,14,78)"/><rect x="10" y="98" width="8" height="8" transform="rotate(0,14,102)"/><rect x="10" y="154" width="8" height="8" transform="rotate(0,14,158)"/><rect x="10" y="170" width="8" height="8" transform="rotate(0,14,174)"/><rect x="10" y="178" width="8" height="8" transform="rotate(0,14,182)"/><circle cx="14" cy="230" r="4" transform="rotate(0,14,230)"/><circle cx="22" cy="70" r="4" transform="rotate(0,22,70)"/><path d="M 18 90v 8h 4a 4 4, 0, 0, 0, 0 -8" transform="rotate(-90,22,94)"/><path d="M 18 98v 8h 8v -4a 4 4, 0, 0, 0, -4 -4" transform="rotate(90,22,102)"/><path d="M 18 122v 8h 4a 4 4, 0, 0, 0, 0 -8" transform="rotate(-90,22,126)"/><rect x="18" y="130" width="8" height="8" transform="rotate(0,22,134)"/><path d="M 18 138v 8h 4a 4 4, 0, 0, 0, 0 -8" transform="rotate(90,22,142)"/><rect x="18" y="154" width="8" height="8" transform="rotate(0,22,158)"/><rect x="18" y="162" width="8" height="8" transform="rotate(0,22,166)"/><rect x="18" y="170" width="8" height="8" transform="rotate(0,22,174)"/><rect x="18" y="178" width="8" height="8" transform="rotate(0,22,182)"/><path d="M 18 186v 8h 8v -4a 4 4, 0, 0, 0, -4 -4" transform="rotate(180,22,190)"/><circle cx="22" cy="222" r="4" transform="rotate(0,22,222)"/><path d="M 26 82v 8h 4a 4 4, 0, 0, 0, 0 -8" transform="rotate(180,30,86)"/><path d="M 26 146v 8h 4a 4 4, 0, 0, 0, 0 -8" transform="rotate(-90,30,150)"/><path d="M 26 154v 8h 8v -4a 4 4, 0, 0, 0, -4 -4" transform="rotate(90,30,158)"/><rect x="26" y="186" width="8" height="8" transform="rotate(0,30,190)"/><rect x="26" y="194" width="8" height="8" transform="rotate(0,30,198)"/><path d="M 26 202v 8h 8v -4a 4 4, 0, 0, 0, -4 -4" transform="rotate(180,30,206)"/><circle cx="30" cy="230" r="4" transform="rotate(0,30,230)"/><path d="M 34 66v 8h 8v -4a 4 4, 0, 0, 0, -4 -4" transform="rotate(-90,38,70)"/><rect x="34" y="74" width="8" height="8" transform="rotate(0,38,78)"/><rect x="34" y="82" width="8" height="8" transform="rotate(0,38,86)"/><path d="M 34 90v 8h 8v -4a 4 4, 0, 0, 0, -4 -4" transform="rotate(180,38,94)"/><path d="M 34 106v 8h 4a 4 4, 0, 0, 0, 0 -8" transform="rotate(-90,38,110)"/><rect x="34" y="114" width="8" height="8" transform="rotate(0,38,118)"/><rect x="34" y="122" width="8" height="8" transform="rotate(0,38,126)"/><rect x="34" y="130" width="8" height="8" transform="rotate(0,38,134)"/><path d="M 34 138v 8h 8v -4a 4 4, 0, 0, 0, -4 -4" transform="rotate(180,38,142)"/><path d="M 34 186v 8h 4a 4 4, 0, 0, 0, 0 -8" transform="rotate(0,38,190)"/><rect x="34" y="202" width="8" height="8" transform="rotate(0,38,206)"/><rect x="34" y="210" width="8" height="8" transform="rotate(0,38,214)"/><path d="M 34 218v 8h 4a 4 4, 0, 0, 0, 0 -8" transform="rotate(90,38,222)"/><rect x="42" y="66" width="8" height="8" transform="rotate(0,46,70)"/><path d="M 42 74v 8h 8v -4a 4 4, 0, 0, 0, -4 -4" transform="rotate(90,46,78)"/><path d="M 42 90v 8h 4a 4 4, 0, 0, 0, 0 -8" transform="rotate(0,46,94)"/><rect x="42" y="114" width="8" height="8" transform="rotate(0,46,118)"/><rect x="42" y="122" width="8" height="8" transform="rotate(0,46,126)"/><rect x="42" y="130" width="8" height="8" transform="rotate(0,46,134)"/><path d="M 42 138v 8h 8v -4a 4 4, 0, 0, 0, -4 -4" transform="rotate(90,46,142)"/><path d="M 42 154v 8h 4a 4 4, 0, 0, 0, 0 -8" transform="rotate(-90,46,158)"/><path d="M 42 162v 8h 8v -4a 4 4, 0, 0, 0, -4 -4" transform="rotate(180,46,166)"/><path d="M 42 178v 8h 4a 4 4, 0, 0, 0, 0 -8" transform="rotate(180,46,182)"/><path d="M 42 202v 8h 8v -4a 4 4, 0, 0, 0, -4 -4" transform="rotate(0,46,206)"/><rect x="42" y="210" width="8" height="8" transform="rotate(0,46,214)"/><path d="M 42 226v 8h 4a 4 4, 0, 0, 0, 0 -8" transform="rotate(180,46,230)"/><path d="M 50 66v 8h 4a 4 4, 0, 0, 0, 0 -8" transform="rotate(0,54,70)"/><path d="M 50 82v 8h 4a 4 4, 0, 0, 0, 0 -8" transform="rotate(180,54,86)"/><path d="M 50 98v 8h 4a 4 4, 0, 0, 0, 0 -8" transform="rotate(180,54,102)"/><rect x="50" y="114" width="8" height="8" transform="rotate(0,54,118)"/><path d="M 50 130v 8h 4a 4 4, 0, 0, 0, 0 -8" transform="rotate(0,54,134)"/><circle cx="54" cy="150" r="4" transform="rotate(0,54,150)"/><rect x="50" y="162" width="8" height="8" transform="rotate(0,54,166)"/><path d="M 50 178v 8h 4a 4 4, 0, 0, 0, 0 -8" transform="rotate(0,54,182)"/><circle cx="54" cy="198" r="4" transform="rotate(0,54,198)"/><rect x="50" y="210" width="8" height="8" transform="rotate(0,54,214)"/><path d="M 50 226v 8h 4a 4 4, 0, 0, 0, 0 -8" transform="rotate(0,54,230)"/><rect x="58" y="82" width="8" height="8" transform="rotate(0,62,86)"/><rect x="58" y="98" width="8" height="8" transform="rotate(0,62,102)"/><rect x="58" y="106" width="8" height="8" transform="rotate(0,62,110)"/><rect x="58" y="114" width="8" height="8" transform="rotate(0,62,118)"/><path d="M 58 122v 8h 8v -4a 4 4, 0, 0, 0, -4 -4" transform="rotate(180,62,126)"/><circle cx="62" cy="142" r="4" transform="rotate(0,62,142)"/><path d="M 58 162v 8h 8v -4a 4 4, 0, 0, 0, -4 -4" transform="rotate(0,62,166)"/><path d="M 58 170v 8h 8v -4a 4 4, 0, 0, 0, -4 -4" transform="rotate(180,62,174)"/><rect x="58" y="210" width="8" height="8" transform="rotate(0,62,214)"/><circle cx="70" cy="14" r="4" transform="rotate(0,70,14)"/><path d="M 66 34v 8h 4a 4 4, 0, 0, 0, 0 -8" transform="rotate(180,70,38)"/><circle cx="70" cy="54" r="4" transform="rotate(0,70,54)"/><path d="M 66 66v 8h 4a 4 4, 0, 0, 0, 0 -8" transform="rotate(180,70,70)"/><path d="M 66 82v 8h 4a 4 4, 0, 0, 0, 0 -8" transform="rotate(0,70,86)"/><rect x="66" y="98" width="8" height="8" transform="rotate(0,70,102)"/><rect x="66" y="106" width="8" height="8" transform="rotate(0,70,110)"/><rect x="66" y="114" width="8" height="8" transform="rotate(0,70,118)"/><rect x="66" y="122" width="8" height="8" transform="rotate(0,70,126)"/><path d="M 66 130v 8h 8v -4a 4 4, 0, 0, 0, -4 -4" transform="rotate(180,70,134)"/><path d="M 66 146v 8h 8v -4a 4 4, 0, 0, 0, -4 -4" transform="rotate(-90,70,150)"/><path d="M 66 154v 8h 4a 4 4, 0, 0, 0, 0 -8" transform="rotate(90,70,158)"/><path d="M 66 170v 8h 8v -4a 4 4, 0, 0, 0, -4 -4" transform="rotate(0,70,174)"/><path d="M 66 178v 8h 8v -4a 4 4, 0, 0, 0, -4 -4" transform="rotate(180,70,182)"/><path d="M 66 202v 8h 4a 4 4, 0, 0, 0, 0 -8" transform="rotate(-90,70,206)"/><rect x="66" y="210" width="8" height="8" transform="rotate(0,70,214)"/><path d="M 66 218v 8h 4a 4 4, 0, 0, 0, 0 -8" transform="rotate(90,70,222)"/><path d="M 66 234v 8h 4a 4 4, 0, 0, 0, 0 -8" transform="rotate(180,70,238)"/><path d="M 66 250v 8h 8v -4a 4 4, 0, 0, 0, -4 -4" transform="rotate(-90,70,254)"/><path d="M 66 258v 8h 8v -4a 4 4, 0, 0, 0, -4 -4" transform="rotate(180,70,262)"/><circle cx="70" cy="278" r="4" transform="rotate(0,70,278)"/><path d="M 74 18v 8h 8v -4a 4 4, 0, 0, 0, -4 -4" transform="rotate(-90,78,22)"/><rect x="74" y="26" width="8" height="8" transform="rotate(0,78,30)"/><rect x="74" y="34" width="8" height="8" transform="rotate(0,78,38)"/><path d="M 74 42v 8h 4a 4 4, 0, 0, 0, 0 -8" transform="rotate(90,78,46)"/><path d="M 74 66v 8h 4a 4 4, 0, 0, 0, 0 -8" transform="rotate(0,78,70)"/><rect x="74" y="98" width="8" height="8" transform="rotate(0,78,102)"/><path d="M 74 106v 8h 8v -4a 4 4, 0, 0, 0, -4 -4" transform="rotate(90,78,110)"/><rect x="74" y="130" width="8" height="8" transform="rotate(0,78,134)"/><path d="M 74 146v 8h 4a 4 4, 0, 0, 0, 0 -8" transform="rotate(0,78,150)"/><path d="M 74 162v 8h 4a 4 4, 0, 0, 0, 0 -8" transform="rotate(180,78,166)"/><path d="M 74 178v 8h 8v -4a 4 4, 0, 0, 0, -4 -4" transform="rotate(0,78,182)"/><path d="M 74 186v 8h 8v -4a 4 4, 0, 0, 0, -4 -4" transform="rotate(180,78,190)"/><path d="M 74 226v 8h 8v -4a 4 4, 0, 0, 0, -4 -4" transform="rotate(-90,78,230)"/><rect x="74" y="234" width="8" height="8" transform="rotate(0,78,238)"/><rect x="74" y="242" width="8" height="8" transform="rotate(0,78,246)"/><rect x="74" y="250" width="8" height="8" transform="rotate(0,78,254)"/><path d="M 74 258v 8h 8v -4a 4 4, 0, 0, 0, -4 -4" transform="rotate(90,78,262)"/><circle cx="78" cy="286" r="4" transform="rotate(0,78,286)"/><path d="M 82 10v 8h 4a 4 4, 0, 0, 0, 0 -8" transform="rotate(-90,86,14)"/><rect x="82" y="18" width="8" height="8" transform="rotate(0,86,22)"/><path d="M 82 26v 8h 8v -4a 4 4, 0, 0, 0, -4 -4" transform="rotate(90,86,30)"/><circle cx="86" cy="54" r="4" transform="rotate(0,86,54)"/><path d="M 82 74v 8h 4a 4 4, 0, 0, 0, 0 -8" transform="rotate(180,86,78)"/><path d="M 82 98v 8h 4a 4 4, 0, 0, 0, 0 -8" transform="rotate(0,86,102)"/><path d="M 82 114v 8h 8v -4a 4 4, 0, 0, 0, -4 -4" transform="rotate(-90,86,118)"/><rect x="82" y="122" width="8" height="8" transform="rotate(0,86,126)"/><rect x="82" y="130" width="8" height="8" transform="rotate(0,86,134)"/><path d="M 82 162v 8h 8v -4a 4 4, 0, 0, 0, -4 -4" transform="rotate(0,86,166)"/><path d="M 82 170v 8h 8v -4a 4 4, 0, 0, 0, -4 -4" transform="rotate(180,86,174)"/><path d="M 82 186v 8h 4a 4 4, 0, 0, 0, 0 -8" transform="rotate(0,86,190)"/><path d="M 82 202v 8h 4a 4 4, 0, 0, 0, 0 -8" transform="rotate(-90,86,206)"/><path d="M 82 210v 8h 8v -4a 4 4, 0, 0, 0, -4 -4" transform="rotate(180,86,214)"/><path d="M 82 226v 8h 8v -4a 4 4, 0, 0, 0, -4 -4" transform="rotate(0,86,230)"/><rect x="82" y="234" width="8" height="8" transform="rotate(0,86,238)"/><path d="M 82 250v 8h 4a 4 4, 0, 0, 0, 0 -8" transform="rotate(0,86,254)"/><path d="M 82 274v 8h 4a 4 4, 0, 0, 0, 0 -8" transform="rotate(180,86,278)"/><path d="M 90 2v 8h 4a 4 4, 0, 0, 0, 0 -8" transform="rotate(180,94,6)"/><path d="M 90 34v 8h 4a 4 4, 0, 0, 0, 0 -8" transform="rotate(180,94,38)"/><path d="M 90 66v 8h 4a 4 4, 0, 0, 0, 0 -8" transform="rotate(-90,94,70)"/><path d="M 90 74v 8h 8v -4a 4 4, 0, 0, 0, -4 -4" transform="rotate(90,94,78)"/><rect x="90" y="114" width="8" height="8" transform="rotate(0,94,118)"/><rect x="90" y="122" width="8" height="8" transform="rotate(0,94,126)"/><rect x="90" y="130" width="8" height="8" transform="rotate(0,94,134)"/><path d="M 90 138v 8h 8v -4a 4 4, 0, 0, 0, -4 -4" transform="rotate(180,94,142)"/><rect x="90" y="170" width="8" height="8" transform="rotate(0,94,174)"/><path d="M 90 178v 8h 8v -4a 4 4, 0, 0, 0, -4 -4" transform="rotate(180,94,182)"/><path d="M 90 194v 8h 4a 4 4, 0, 0, 0, 0 -8" transform="rotate(180,94,198)"/><path d="M 90 210v 8h 4a 4 4, 0, 0, 0, 0 -8" transform="rotate(0,94,214)"/><rect x="90" y="234" width="8" height="8" transform="rotate(0,94,238)"/><path d="M 90 266v 8h 4a 4 4, 0, 0, 0, 0 -8" transform="rotate(-90,94,270)"/><rect x="90" y="274" width="8" height="8" transform="rotate(0,94,278)"/><path d="M 98 2v 8h 8v -4a 4 4, 0, 0, 0, -4 -4" transform="rotate(0,102,6)"/><path d="M 98 10v 8h 8v -4a 4 4, 0, 0, 0, -4 -4" transform="rotate(180,102,14)"/><path d="M 98 34v 8h 8v -4a 4 4, 0, 0, 0, -4 -4" transform="rotate(0,102,38)"/><rect x="98" y="42" width="8" height="8" transform="rotate(0,102,46)"/><path d="M 98 50v 8h 4a 4 4, 0, 0, 0, 0 -8" transform="rotate(90,102,54)"/><path d="M 98 90v 8h 8v -4a 4 4, 0, 0, 0, -4 -4" transform="rotate(-90,102,94)"/><path d="M 98 98v 8h 4a 4 4, 0, 0, 0, 0 -8" transform="rotate(90,102,102)"/><rect x="98" y="114" width="8" height="8" transform="rotate(0,102,118)"/><rect x="98" y="122" width="8" height="8" transform="rotate(0,102,126)"/><rect x="98" y="130" width="8" height="8" transform="rotate(0,102,134)"/><path d="M 98 138v 8h 8v -4a 4 4, 0, 0, 0, -4 -4" transform="rotate(90,102,142)"/><path d="M 98 162v 8h 4a 4 4, 0, 0, 0, 0 -8" transform="rotate(-90,102,166)"/><rect x="98" y="170" width="8" height="8" transform="rotate(0,102,174)"/><rect x="98" y="178" width="8" height="8" transform="rotate(0,102,182)"/><rect x="98" y="186" width="8" height="8" transform="rotate(0,102,190)"/><rect x="98" y="194" width="8" height="8" transform="rotate(0,102,198)"/><path d="M 98 218v 8h 4a 4 4, 0, 0, 0, 0 -8" transform="rotate(180,102,222)"/><rect x="98" y="234" width="8" height="8" transform="rotate(0,102,238)"/><path d="M 98 242v 8h 4a 4 4, 0, 0, 0, 0 -8" transform="rotate(90,102,246)"/><rect x="98" y="274" width="8" height="8" transform="rotate(0,102,278)"/><rect x="98" y="282" width="8" height="8" transform="rotate(0,102,286)"/><path d="M 98 290v 8h 4a 4 4, 0, 0, 0, 0 -8" transform="rotate(90,102,294)"/><path d="M 106 10v 8h 4a 4 4, 0, 0, 0, 0 -8" transform="rotate(0,110,14)"/><path d="M 106 66v 8h 4a 4 4, 0, 0, 0, 0 -8" transform="rotate(-90,110,70)"/><rect x="106" y="74" width="8" height="8" transform="rotate(0,110,78)"/><rect x="106" y="82" width="8" height="8" transform="rotate(0,110,86)"/><path d="M 106 90v 8h 8v -4a 4 4, 0, 0, 0, -4 -4" transform="rotate(90,110,94)"/><path d="M 106 114v 8h 4a 4 4, 0, 0, 0, 0 -8" transform="rotate(0,110,118)"/><path d="M 106 130v 8h 4a 4 4, 0, 0, 0, 0 -8" transform="rotate(0,110,134)"/><path d="M 106 146v 8h 8v -4a 4 4, 0, 0, 0, -4 -4" transform="rotate(-90,110,150)"/><path d="M 106 154v 8h 8v -4a 4 4, 0, 0, 0, -4 -4" transform="rotate(180,110,158)"/><path d="M 106 170v 8h 4a 4 4, 0, 0, 0, 0 -8" transform="rotate(0,110,174)"/><rect x="106" y="186" width="8" height="8" transform="rotate(0,110,190)"/><rect x="106" y="194" width="8" height="8" transform="rotate(0,110,198)"/><rect x="106" y="218" width="8" height="8" transform="rotate(0,110,222)"/><rect x="106" y="226" width="8" height="8" transform="rotate(0,110,230)"/><path d="M 106 234v 8h 8v -4a 4 4, 0, 0, 0, -4 -4" transform="rotate(90,110,238)"/><path d="M 106 258v 8h 4a 4 4, 0, 0, 0, 0 -8" transform="rotate(180,110,262)"/><rect x="106" y="274" width="8" height="8" transform="rotate(0,110,278)"/><path d="M 106 282v 8h 8v -4a 4 4, 0, 0, 0, -4 -4" transform="rotate(90,110,286)"/><path d="M 114 18v 8h 4a 4 4, 0, 0, 0, 0 -8" transform="rotate(180,118,22)"/><path d="M 114 42v 8h 8v -4a 4 4, 0, 0, 0, -4 -4" transform="rotate(-90,118,46)"/><rect x="114" y="50" width="8" height="8" transform="rotate(0,118,54)"/><path d="M 114 58v 8h 8v -4a 4 4, 0, 0, 0, -4 -4" transform="rotate(180,118,62)"/><path d="M 114 74v 8h 4a 4 4, 0, 0, 0, 0 -8" transform="rotate(0,118,78)"/><circle cx="118" cy="102" r="4" transform="rotate(0,118,102)"/><rect x="114" y="146" width="8" height="8" transform="rotate(0,118,150)"/><rect x="114" y="154" width="8" height="8" transform="rotate(0,118,158)"/><path d="M 114 162v 8h 4a 4 4, 0, 0, 0, 0 -8" transform="rotate(90,118,166)"/><path d="M 114 186v 8h 8v -4a 4 4, 0, 0, 0, -4 -4" transform="rotate(0,118,190)"/><rect x="114" y="194" width="8" height="8" transform="rotate(0,118,198)"/><rect x="114" y="202" width="8" height="8" transform="rotate(0,118,206)"/><rect x="114" y="210" width="8" height="8" transform="rotate(0,118,214)"/><path d="M 114 218v 8h 8v -4a 4 4, 0, 0, 0, -4 -4" transform="rotate(90,118,222)"/><path d="M 114 242v 8h 4a 4 4, 0, 0, 0, 0 -8" transform="rotate(180,118,246)"/><path d="M 114 258v 8h 8v -4a 4 4, 0, 0, 0, -4 -4" transform="rotate(0,118,262)"/><rect x="114" y="266" width="8" height="8" transform="rotate(0,118,270)"/><rect x="114" y="274" width="8" height="8" transform="rotate(0,118,278)"/><circle cx="126" cy="6" r="4" transform="rotate(0,126,6)"/><path d="M 122 18v 8h 8v -4a 4 4, 0, 0, 0, -4 -4" transform="rotate(0,126,22)"/><rect x="122" y="26" width="8" height="8" transform="rotate(0,126,30)"/><rect x="122" y="34" width="8" height="8" transform="rotate(0,126,38)"/><rect x="122" y="42" width="8" height="8" transform="rotate(0,126,46)"/><path d="M 122 58v 8h 8v -4a 4 4, 0, 0, 0, -4 -4" transform="rotate(0,126,62)"/><path d="M 122 66v 8h 4a 4 4, 0, 0, 0, 0 -8" transform="rotate(90,126,70)"/><path d="M 122 114v 8h 8v -4a 4 4, 0, 0, 0, -4 -4" transform="rotate(-90,126,118)"/><path d="M 122 122v 8h 4a 4 4, 0, 0, 0, 0 -8" transform="rotate(90,126,126)"/><path d="M 122 138v 8h 4a 4 4, 0, 0, 0, 0 -8" transform="rotate(-90,126,142)"/><path d="M 122 146v 8h 8v -4a 4 4, 0, 0, 0, -4 -4" transform="rotate(90,126,150)"/><path d="M 122 178v 8h 4a 4 4, 0, 0, 0, 0 -8" transform="rotate(180,126,182)"/><rect x="122" y="194" width="8" height="8" transform="rotate(0,126,198)"/><path d="M 122 210v 8h 4a 4 4, 0, 0, 0, 0 -8" transform="rotate(0,126,214)"/><path d="M 122 234v 8h 8v -4a 4 4, 0, 0, 0, -4 -4" transform="rotate(-90,126,238)"/><rect x="122" y="242" width="8" height="8" transform="rotate(0,126,246)"/><rect x="122" y="274" width="8" height="8" transform="rotate(0,126,278)"/><circle cx="134" cy="14" r="4" transform="rotate(0,134,14)"/><path d="M 130 26v 8h 8v -4a 4 4, 0, 0, 0, -4 -4" transform="rotate(0,134,30)"/><rect x="130" y="34" width="8" height="8" transform="rotate(0,134,38)"/><rect x="130" y="42" width="8" height="8" transform="rotate(0,134,46)"/><path d="M 130 50v 8h 4a 4 4, 0, 0, 0, 0 -8" transform="rotate(90,134,54)"/><path d="M 130 82v 8h 8v -4a 4 4, 0, 0, 0, -4 -4" transform="rotate(-90,134,86)"/><path d="M 130 90v 8h 4a 4 4, 0, 0, 0, 0 -8" transform="rotate(90,134,94)"/><path d="M 130 114v 8h 4a 4 4, 0, 0, 0, 0 -8" transform="rotate(0,134,118)"/><path d="M 130 154v 8h 4a 4 4, 0, 0, 0, 0 -8" transform="rotate(-90,134,158)"/><path d="M 130 162v 8h 8v -4a 4 4, 0, 0, 0, -4 -4" transform="rotate(180,134,166)"/><path d="M 130 178v 8h 4a 4 4, 0, 0, 0, 0 -8" transform="rotate(0,134,182)"/><path d="M 130 194v 8h 4a 4 4, 0, 0, 0, 0 -8" transform="rotate(0,134,198)"/><path d="M 130 218v 8h 4a 4 4, 0, 0, 0, 0 -8" transform="rotate(180,134,222)"/><path d="M 130 234v 8h 8v -4a 4 4, 0, 0, 0, -4 -4" transform="rotate(0,134,238)"/><rect x="130" y="242" width="8" height="8" transform="rotate(0,134,246)"/><path d="M 130 250v 8h 8v -4a 4 4, 0, 0, 0, -4 -4" transform="rotate(180,134,254)"/><path d="M 130 266v 8h 8v -4a 4 4, 0, 0, 0, -4 -4" transform="rotate(-90,134,270)"/><rect x="130" y="274" width="8" height="8" transform="rotate(0,134,278)"/><rect x="130" y="282" width="8" height="8" transform="rotate(0,134,286)"/><path d="M 130 290v 8h 4a 4 4, 0, 0, 0, 0 -8" transform="rotate(90,134,294)"/><circle cx="142" cy="6" r="4" transform="rotate(0,142,6)"/><circle cx="142" cy="22" r="4" transform="rotate(0,142,22)"/><rect x="138" y="34" width="8" height="8" transform="rotate(0,142,38)"/><rect x="138" y="42" width="8" height="8" transform="rotate(0,142,46)"/><path d="M 138 74v 8h 4a 4 4, 0, 0, 0, 0 -8" transform="rotate(-90,142,78)"/><path d="M 138 82v 8h 8v -4a 4 4, 0, 0, 0, -4 -4" transform="rotate(90,142,86)"/><path d="M 138 130v 8h 4a 4 4, 0, 0, 0, 0 -8" transform="rotate(180,142,134)"/><rect x="138" y="162" width="8" height="8" transform="rotate(0,142,166)"/><path d="M 138 170v 8h 8v -4a 4 4, 0, 0, 0, -4 -4" transform="rotate(180,142,174)"/><path d="M 138 210v 8h 8v -4a 4 4, 0, 0, 0, -4 -4" transform="rotate(-90,142,214)"/><rect x="138" y="218" width="8" height="8" transform="rotate(0,142,222)"/><path d="M 138 226v 8h 4a 4 4, 0, 0, 0, 0 -8" transform="rotate(90,142,230)"/><path d="M 138 250v 8h 8v -4a 4 4, 0, 0, 0, -4 -4" transform="rotate(0,142,254)"/><rect x="138" y="258" width="8" height="8" transform="rotate(0,142,262)"/><rect x="138" y="266" width="8" height="8" transform="rotate(0,142,270)"/><circle cx="150" cy="14" r="4" transform="rotate(0,150,14)"/><rect x="146" y="34" width="8" height="8" transform="rotate(0,150,38)"/><rect x="146" y="42" width="8" height="8" transform="rotate(0,150,46)"/><path d="M 146 50v 8h 4a 4 4, 0, 0, 0, 0 -8" transform="rotate(90,150,54)"/><circle cx="150" cy="70" r="4" transform="rotate(0,150,70)"/><path d="M 146 90v 8h 4a 4 4, 0, 0, 0, 0 -8" transform="rotate(180,150,94)"/><path d="M 146 106v 8h 4a 4 4, 0, 0, 0, 0 -8" transform="rotate(-90,150,110)"/><path d="M 146 114v 8h 8v -4a 4 4, 0, 0, 0, -4 -4" transform="rotate(180,150,118)"/><rect x="146" y="130" width="8" height="8" transform="rotate(0,150,134)"/><rect x="146" y="138" width="8" height="8" transform="rotate(0,150,142)"/><path d="M 146 146v 8h 8v -4a 4 4, 0, 0, 0, -4 -4" transform="rotate(180,150,150)"/><path d="M 146 162v 8h 8v -4a 4 4, 0, 0, 0, -4 -4" transform="rotate(0,150,166)"/><rect x="146" y="170" width="8" height="8" transform="rotate(0,150,174)"/><rect x="146" y="210" width="8" height="8" transform="rotate(0,150,214)"/><path d="M 146 218v 8h 8v -4a 4 4, 0, 0, 0, -4 -4" transform="rotate(90,150,222)"/><circle cx="150" cy="238" r="4" transform="rotate(0,150,238)"/><path d="M 146 266v 8h 8v -4a 4 4, 0, 0, 0, -4 -4" transform="rotate(0,150,270)"/><path d="M 146 274v 8h 8v -4a 4 4, 0, 0, 0, -4 -4" transform="rotate(180,150,278)"/><path d="M 154 34v 8h 4a 4 4, 0, 0, 0, 0 -8" transform="rotate(0,158,38)"/><circle cx="158" cy="62" r="4" transform="rotate(0,158,62)"/><path d="M 154 82v 8h 8v -4a 4 4, 0, 0, 0, -4 -4" transform="rotate(-90,158,86)"/><path d="M 154 90v 8h 8v -4a 4 4, 0, 0, 0, -4 -4" transform="rotate(90,158,94)"/><path d="M 154 114v 8h 4a 4 4, 0, 0, 0, 0 -8" transform="rotate(0,158,118)"/><path d="M 154 130v 8h 4a 4 4, 0, 0, 0, 0 -8" transform="rotate(0,158,134)"/><rect x="154" y="146" width="8" height="8" transform="rotate(0,158,150)"/><path d="M 154 154v 8h 4a 4 4, 0, 0, 0, 0 -8" transform="rotate(90,158,158)"/><rect x="154" y="170" width="8" height="8" transform="rotate(0,158,174)"/><path d="M 154 194v 8h 4a 4 4, 0, 0, 0, 0 -8" transform="rotate(180,158,198)"/><path d="M 154 210v 8h 4a 4 4, 0, 0, 0, 0 -8" transform="rotate(0,158,214)"/><path d="M 154 242v 8h 4a 4 4, 0, 0, 0, 0 -8" transform="rotate(180,158,246)"/><rect x="154" y="274" width="8" height="8" transform="rotate(0,158,278)"/><circle cx="158" cy="294" r="4" transform="rotate(0,158,294)"/><path d="M 162 2v 8h 4a 4 4, 0, 0, 0, 0 -8" transform="rotate(180,166,6)"/><circle cx="166" cy="30" r="4" transform="rotate(0,166,30)"/><circle cx="166" cy="54" r="4" transform="rotate(0,166,54)"/><path d="M 162 66v 8h 4a 4 4, 0, 0, 0, 0 -8" transform="rotate(180,166,70)"/><rect x="162" y="82" width="8" height="8" transform="rotate(0,166,86)"/><path d="M 162 106v 8h 4a 4 4, 0, 0, 0, 0 -8" transform="rotate(180,166,110)"/><path d="M 162 138v 8h 8v -4a 4 4, 0, 0, 0, -4 -4" transform="rotate(-90,166,142)"/><path d="M 162 146v 8h 8v -4a 4 4, 0, 0, 0, -4 -4" transform="rotate(90,166,150)"/><path d="M 162 162v 8h 8v -4a 4 4, 0, 0, 0, -4 -4" transform="rotate(-90,166,166)"/><rect x="162" y="170" width="8" height="8" transform="rotate(0,166,174)"/><rect x="162" y="178" width="8" height="8" transform="rotate(0,166,182)"/><rect x="162" y="186" width="8" height="8" transform="rotate(0,166,190)"/><path d="M 162 194v 8h 8v -4a 4 4, 0, 0, 0, -4 -4" transform="rotate(90,166,198)"/><path d="M 162 218v 8h 4a 4 4, 0, 0, 0, 0 -8" transform="rotate(180,166,222)"/><path d="M 162 242v 8h 4a 4 4, 0, 0, 0, 0 -8" transform="rotate(0,166,246)"/><path d="M 162 266v 8h 4a 4 4, 0, 0, 0, 0 -8" transform="rotate(-90,166,270)"/><rect x="162" y="274" width="8" height="8" transform="rotate(0,166,278)"/><path d="M 162 282v 8h 4a 4 4, 0, 0, 0, 0 -8" transform="rotate(90,166,286)"/><path d="M 170 2v 8h 4a 4 4, 0, 0, 0, 0 -8" transform="rotate(0,174,6)"/><circle cx="174" cy="22" r="4" transform="rotate(0,174,22)"/><path d="M 170 34v 8h 4a 4 4, 0, 0, 0, 0 -8" transform="rotate(180,174,38)"/><path d="M 170 58v 8h 8v -4a 4 4, 0, 0, 0, -4 -4" transform="rotate(-90,174,62)"/><rect x="170" y="66" width="8" height="8" transform="rotate(0,174,70)"/><path d="M 170 82v 8h 4a 4 4, 0, 0, 0, 0 -8" transform="rotate(0,174,86)"/><rect x="170" y="106" width="8" height="8" transform="rotate(0,174,110)"/><rect x="170" y="114" width="8" height="8" transform="rotate(0,174,118)"/><path d="M 170 122v 8h 8v -4a 4 4, 0, 0, 0, -4 -4" transform="rotate(180,174,126)"/><rect x="170" y="138" width="8" height="8" transform="rotate(0,174,142)"/><path d="M 170 154v 8h 8v -4a 4 4, 0, 0, 0, -4 -4" transform="rotate(-90,174,158)"/><rect x="170" y="162" width="8" height="8" transform="rotate(0,174,166)"/><rect x="170" y="170" width="8" height="8" transform="rotate(0,174,174)"/><rect x="170" y="186" width="8" height="8" transform="rotate(0,174,190)"/><rect x="170" y="218" width="8" height="8" transform="rotate(0,174,222)"/><circle cx="174" cy="262" r="4" transform="rotate(0,174,262)"/><path d="M 178 10v 8h 4a 4 4, 0, 0, 0, 0 -8" transform="rotate(180,182,14)"/><path d="M 178 34v 8h 8v -4a 4 4, 0, 0, 0, -4 -4" transform="rotate(0,182,38)"/><rect x="178" y="42" width="8" height="8" transform="rotate(0,182,46)"/><rect x="178" y="50" width="8" height="8" transform="rotate(0,182,54)"/><rect x="178" y="58" width="8" height="8" transform="rotate(0,182,62)"/><rect x="178" y="66" width="8" height="8" transform="rotate(0,182,70)"/><path d="M 178 74v 8h 4a 4 4, 0, 0, 0, 0 -8" transform="rotate(90,182,78)"/><path d="M 178 90v 8h 8v -4a 4 4, 0, 0, 0, -4 -4" transform="rotate(-90,182,94)"/><rect x="178" y="98" width="8" height="8" transform="rotate(0,182,102)"/><rect x="178" y="106" width="8" height="8" transform="rotate(0,182,110)"/><rect x="178" y="114" width="8" height="8" transform="rotate(0,182,118)"/><rect x="178" y="122" width="8" height="8" transform="rotate(0,182,126)"/><rect x="178" y="138" width="8" height="8" transform="rotate(0,182,142)"/><rect x="178" y="146" width="8" height="8" transform="rotate(0,182,150)"/><rect x="178" y="154" width="8" height="8" transform="rotate(0,182,158)"/><rect x="178" y="162" width="8" height="8" transform="rotate(0,182,166)"/><rect x="178" y="170" width="8" height="8" transform="rotate(0,182,174)"/><rect x="178" y="178" width="8" height="8" transform="rotate(0,182,182)"/><rect x="178" y="186" width="8" height="8" transform="rotate(0,182,190)"/><rect x="178" y="194" width="8" height="8" transform="rotate(0,182,198)"/><rect x="178" y="202" width="8" height="8" transform="rotate(0,182,206)"/><rect x="178" y="210" width="8" height="8" transform="rotate(0,182,214)"/><rect x="178" y="218" width="8" height="8" transform="rotate(0,182,222)"/><path d="M 178 226v 8h 8v -4a 4 4, 0, 0, 0, -4 -4" transform="rotate(180,182,230)"/><path d="M 178 242v 8h 4a 4 4, 0, 0, 0, 0 -8" transform="rotate(180,182,246)"/><path d="M 186 2v 8h 4a 4 4, 0, 0, 0, 0 -8" transform="rotate(-90,190,6)"/><rect x="186" y="10" width="8" height="8" transform="rotate(0,190,14)"/><rect x="186" y="18" width="8" height="8" transform="rotate(0,190,22)"/><path d="M 186 26v 8h 8v -4a 4 4, 0, 0, 0, -4 -4" transform="rotate(180,190,30)"/><rect x="186" y="42" width="8" height="8" transform="rotate(0,190,46)"/><path d="M 186 58v 8h 8v -4a 4 4, 0, 0, 0, -4 -4" transform="rotate(0,190,62)"/><rect x="186" y="66" width="8" height="8" transform="rotate(0,190,70)"/><rect x="186" y="90" width="8" height="8" transform="rotate(0,190,94)"/><path d="M 186 122v 8h 4a 4 4, 0, 0, 0, 0 -8" transform="rotate(0,190,126)"/><rect x="186" y="138" width="8" height="8" transform="rotate(0,190,142)"/><rect x="186" y="146" width="8" height="8" transform="rotate(0,190,150)"/><rect x="186" y="170" width="8" height="8" transform="rotate(0,190,174)"/><rect x="186" y="178" width="8" height="8" transform="rotate(0,190,182)"/><rect x="186" y="186" width="8" height="8" transform="rotate(0,190,190)"/><rect x="186" y="202" width="8" height="8" transform="rotate(0,190,206)"/><rect x="186" y="226" width="8" height="8" transform="rotate(0,190,230)"/><rect x="186" y="234" width="8" height="8" transform="rotate(0,190,238)"/><rect x="186" y="242" width="8" height="8" transform="rotate(0,190,246)"/><path d="M 186 250v 8h 8v -4a 4 4, 0, 0, 0, -4 -4" transform="rotate(180,190,254)"/><path d="M 186 274v 8h 4a 4 4, 0, 0, 0, 0 -8" transform="rotate(180,190,278)"/><rect x="194" y="26" width="8" height="8" transform="rotate(0,198,30)"/><rect x="194" y="42" width="8" height="8" transform="rotate(0,198,46)"/><path d="M 194 50v 8h 4a 4 4, 0, 0, 0, 0 -8" transform="rotate(90,198,54)"/><path d="M 194 66v 8h 4a 4 4, 0, 0, 0, 0 -8" transform="rotate(0,198,70)"/><path d="M 194 82v 8h 8v -4a 4 4, 0, 0, 0, -4 -4" transform="rotate(-90,198,86)"/><rect x="194" y="90" width="8" height="8" transform="rotate(0,198,94)"/><path d="M 194 138v 8h 8v -4a 4 4, 0, 0, 0, -4 -4" transform="rotate(0,198,142)"/><path d="M 194 146v 8h 8v -4a 4 4, 0, 0, 0, -4 -4" transform="rotate(90,198,150)"/><rect x="194" y="170" width="8" height="8" transform="rotate(0,198,174)"/><rect x="194" y="186" width="8" height="8" transform="rotate(0,198,190)"/><rect x="194" y="194" width="8" height="8" transform="rotate(0,198,198)"/><rect x="194" y="202" width="8" height="8" transform="rotate(0,198,206)"/><path d="M 194 218v 8h 4a 4 4, 0, 0, 0, 0 -8" transform="rotate(-90,198,222)"/><rect x="194" y="226" width="8" height="8" transform="rotate(0,198,230)"/><path d="M 194 234v 8h 8v -4a 4 4, 0, 0, 0, -4 -4" transform="rotate(90,198,238)"/><path d="M 194 250v 8h 8v -4a 4 4, 0, 0, 0, -4 -4" transform="rotate(0,198,254)"/><path d="M 194 258v 8h 4a 4 4, 0, 0, 0, 0 -8" transform="rotate(90,198,262)"/><rect x="194" y="274" width="8" height="8" transform="rotate(0,198,278)"/><path d="M 202 2v 8h 4a 4 4, 0, 0, 0, 0 -8" transform="rotate(-90,206,6)"/><rect x="202" y="10" width="8" height="8" transform="rotate(0,206,14)"/><rect x="202" y="18" width="8" height="8" transform="rotate(0,206,22)"/><rect x="202" y="26" width="8" height="8" transform="rotate(0,206,30)"/><rect x="202" y="34" width="8" height="8" transform="rotate(0,206,38)"/><rect x="202" y="42" width="8" height="8" transform="rotate(0,206,46)"/><path d="M 202 58v 8h 4a 4 4, 0, 0, 0, 0 -8" transform="rotate(180,206,62)"/><path d="M 202 74v 8h 4a 4 4, 0, 0, 0, 0 -8" transform="rotate(-90,206,78)"/><rect x="202" y="82" width="8" height="8" transform="rotate(0,206,86)"/><rect x="202" y="90" width="8" height="8" transform="rotate(0,206,94)"/><circle cx="206" cy="158" r="4" transform="rotate(0,206,158)"/><path d="M 202 170v 8h 4a 4 4, 0, 0, 0, 0 -8" transform="rotate(0,206,174)"/><rect x="202" y="186" width="8" height="8" transform="rotate(0,206,190)"/><rect x="202" y="202" width="8" height="8" transform="rotate(0,206,206)"/><path d="M 202 210v 8h 8v -4a 4 4, 0, 0, 0, -4 -4" transform="rotate(180,206,214)"/><circle cx="206" cy="246" r="4" transform="rotate(0,206,246)"/><path d="M 202 266v 8h 4a 4 4, 0, 0, 0, 0 -8" transform="rotate(-90,206,270)"/><rect x="202" y="274" width="8" height="8" transform="rotate(0,206,278)"/><path d="M 202 282v 8h 4a 4 4, 0, 0, 0, 0 -8" transform="rotate(90,206,286)"/><rect x="210" y="18" width="8" height="8" transform="rotate(0,214,22)"/><rect x="210" y="26" width="8" height="8" transform="rotate(0,214,30)"/><rect x="210" y="34" width="8" height="8" transform="rotate(0,214,38)"/><rect x="210" y="42" width="8" height="8" transform="rotate(0,214,46)"/><rect x="210" y="50" width="8" height="8" transform="rotate(0,214,54)"/><rect x="210" y="58" width="8" height="8" transform="rotate(0,214,62)"/><path d="M 210 66v 8h 8v -4a 4 4, 0, 0, 0, -4 -4" transform="rotate(180,214,70)"/><path d="M 210 82v 8h 8v -4a 4 4, 0, 0, 0, -4 -4" transform="rotate(0,214,86)"/><path d="M 210 90v 8h 8v -4a 4 4, 0, 0, 0, -4 -4" transform="rotate(90,214,94)"/><circle cx="214" cy="110" r="4" transform="rotate(0,214,110)"/><circle cx="214" cy="134" r="4" transform="rotate(0,214,134)"/><path d="M 210 146v 8h 4a 4 4, 0, 0, 0, 0 -8" transform="rotate(180,214,150)"/><rect x="210" y="186" width="8" height="8" transform="rotate(0,214,190)"/><rect x="210" y="194" width="8" height="8" transform="rotate(0,214,198)"/><rect x="210" y="202" width="8" height="8" transform="rotate(0,214,206)"/><rect x="210" y="210" width="8" height="8" transform="rotate(0,214,214)"/><path d="M 210 218v 8h 8v -4a 4 4, 0, 0, 0, -4 -4" transform="rotate(180,214,222)"/><circle cx="214" cy="238" r="4" transform="rotate(0,214,238)"/><path d="M 210 258v 8h 4a 4 4, 0, 0, 0, 0 -8" transform="rotate(180,214,262)"/><rect x="218" y="18" width="8" height="8" transform="rotate(0,222,22)"/><rect x="218" y="26" width="8" height="8" transform="rotate(0,222,30)"/><rect x="218" y="34" width="8" height="8" transform="rotate(0,222,38)"/><rect x="218" y="42" width="8" height="8" transform="rotate(0,222,46)"/><path d="M 218 66v 8h 8v -4a 4 4, 0, 0, 0, -4 -4" transform="rotate(0,222,70)"/><path d="M 218 74v 8h 4a 4 4, 0, 0, 0, 0 -8" transform="rotate(90,222,78)"/><rect x="218" y="146" width="8" height="8" transform="rotate(0,222,150)"/><path d="M 218 154v 8h 8v -4a 4 4, 0, 0, 0, -4 -4" transform="rotate(180,222,158)"/><path d="M 218 170v 8h 4a 4 4, 0, 0, 0, 0 -8" transform="rotate(180,222,174)"/><rect x="218" y="186" width="8" height="8" transform="rotate(0,222,190)"/><path d="M 218 210v 8h 8v -4a 4 4, 0, 0, 0, -4 -4" transform="rotate(0,222,214)"/><rect x="218" y="218" width="8" height="8" transform="rotate(0,222,222)"/><path d="M 218 226v 8h 8v -4a 4 4, 0, 0, 0, -4 -4" transform="rotate(180,222,230)"/><path d="M 218 242v 8h 8v -4a 4 4, 0, 0, 0, -4 -4" transform="rotate(-90,222,246)"/><rect x="218" y="250" width="8" height="8" transform="rotate(0,222,254)"/><rect x="218" y="258" width="8" height="8" transform="rotate(0,222,262)"/><rect x="218" y="266" width="8" height="8" transform="rotate(0,222,270)"/><path d="M 218 274v 8h 4a 4 4, 0, 0, 0, 0 -8" transform="rotate(90,222,278)"/><path d="M 226 2v 8h 4a 4 4, 0, 0, 0, 0 -8" transform="rotate(-90,230,6)"/><rect x="226" y="10" width="8" height="8" transform="rotate(0,230,14)"/><path d="M 226 18v 8h 8v -4a 4 4, 0, 0, 0, -4 -4" transform="rotate(90,230,22)"/><path d="M 226 34v 8h 8v -4a 4 4, 0, 0, 0, -4 -4" transform="rotate(0,230,38)"/><rect x="226" y="42" width="8" height="8" transform="rotate(0,230,46)"/><path d="M 226 50v 8h 4a 4 4, 0, 0, 0, 0 -8" transform="rotate(90,230,54)"/><path d="M 226 82v 8h 4a 4 4, 0, 0, 0, 0 -8" transform="rotate(180,230,86)"/><path d="M 226 106v 8h 4a 4 4, 0, 0, 0, 0 -8" transform="rotate(-90,230,110)"/><rect x="226" y="114" width="8" height="8" transform="rotate(0,230,118)"/><rect x="226" y="122" width="8" height="8" transform="rotate(0,230,126)"/><path d="M 226 130v 8h 8v -4a 4 4, 0, 0, 0, -4 -4" transform="rotate(180,230,134)"/><rect x="226" y="146" width="8" height="8" transform="rotate(0,230,150)"/><rect x="226" y="154" width="8" height="8" transform="rotate(0,230,158)"/><path d="M 226 170v 8h 8v -4a 4 4, 0, 0, 0, -4 -4" transform="rotate(0,230,174)"/><rect x="226" y="178" width="8" height="8" transform="rotate(0,230,182)"/><rect x="226" y="186" width="8" height="8" transform="rotate(0,230,190)"/><rect x="226" y="226" width="8" height="8" transform="rotate(0,230,230)"/><rect x="226" y="234" width="8" height="8" transform="rotate(0,230,238)"/><rect x="226" y="242" width="8" height="8" transform="rotate(0,230,246)"/><rect x="226" y="250" width="8" height="8" transform="rotate(0,230,254)"/><rect x="226" y="258" width="8" height="8" transform="rotate(0,230,262)"/><circle cx="230" cy="286" r="4" transform="rotate(0,230,286)"/><circle cx="238" cy="70" r="4" transform="rotate(0,238,70)"/><rect x="234" y="82" width="8" height="8" transform="rotate(0,238,86)"/><path d="M 234 98v 8h 4a 4 4, 0, 0, 0, 0 -8" transform="rotate(180,238,102)"/><rect x="234" y="122" width="8" height="8" transform="rotate(0,238,126)"/><rect x="234" y="130" width="8" height="8" transform="rotate(0,238,134)"/><rect x="234" y="138" width="8" height="8" transform="rotate(0,238,142)"/><rect x="234" y="146" width="8" height="8" transform="rotate(0,238,150)"/><rect x="234" y="154" width="8" height="8" transform="rotate(0,238,158)"/><rect x="234" y="178" width="8" height="8" transform="rotate(0,238,182)"/><rect x="234" y="186" width="8" height="8" transform="rotate(0,238,190)"/><rect x="234" y="226" width="8" height="8" transform="rotate(0,238,230)"/><rect x="234" y="258" width="8" height="8" transform="rotate(0,238,262)"/><path d="M 234 266v 8h 8v -4a 4 4, 0, 0, 0, -4 -4" transform="rotate(180,238,270)"/><path d="M 242 74v 8h 8v -4a 4 4, 0, 0, 0, -4 -4" transform="rotate(-90,246,78)"/><rect x="242" y="82" width="8" height="8" transform="rotate(0,246,86)"/><rect x="242" y="98" width="8" height="8" transform="rotate(0,246,102)"/><path d="M 242 106v 8h 8v -4a 4 4, 0, 0, 0, -4 -4" transform="rotate(180,246,110)"/><rect x="242" y="122" width="8" height="8" transform="rotate(0,246,126)"/><rect x="242" y="138" width="8" height="8" transform="rotate(0,246,142)"/><path d="M 242 154v 8h 8v -4a 4 4, 0, 0, 0, -4 -4" transform="rotate(0,246,158)"/><rect x="242" y="162" width="8" height="8" transform="rotate(0,246,166)"/><rect x="242" y="170" width="8" height="8" transform="rotate(0,246,174)"/><rect x="242" y="178" width="8" height="8" transform="rotate(0,246,182)"/><rect x="242" y="186" width="8" height="8" transform="rotate(0,246,190)"/><path d="M 242 194v 8h 8v -4a 4 4, 0, 0, 0, -4 -4" transform="rotate(180,246,198)"/><circle cx="246" cy="214" r="4" transform="rotate(0,246,214)"/><rect x="242" y="226" width="8" height="8" transform="rotate(0,246,230)"/><circle cx="246" cy="246" r="4" transform="rotate(0,246,246)"/><rect x="242" y="258" width="8" height="8" transform="rotate(0,246,262)"/><rect x="242" y="266" width="8" height="8" transform="rotate(0,246,270)"/><path d="M 242 274v 8h 8v -4a 4 4, 0, 0, 0, -4 -4" transform="rotate(180,246,278)"/><path d="M 250 74v 8h 8v -4a 4 4, 0, 0, 0, -4 -4" transform="rotate(0,254,78)"/><path d="M 250 82v 8h 8v -4a 4 4, 0, 0, 0, -4 -4" transform="rotate(90,254,86)"/><rect x="250" y="98" width="8" height="8" transform="rotate(0,254,102)"/><rect x="250" y="106" width="8" height="8" transform="rotate(0,254,110)"/><path d="M 250 122v 8h 8v -4a 4 4, 0, 0, 0, -4 -4" transform="rotate(0,254,126)"/><rect x="250" y="130" width="8" height="8" transform="rotate(0,254,134)"/><rect x="250" y="138" width="8" height="8" transform="rotate(0,254,142)"/><rect x="250" y="162" width="8" height="8" transform="rotate(0,254,166)"/><path d="M 250 170v 8h 8v -4a 4 4, 0, 0, 0, -4 -4" transform="rotate(90,254,174)"/><path d="M 250 194v 8h 4a 4 4, 0, 0, 0, 0 -8" transform="rotate(0,254,198)"/><rect x="250" y="226" width="8" height="8" transform="rotate(0,254,230)"/><rect x="250" y="258" width="8" height="8" transform="rotate(0,254,262)"/><rect x="250" y="274" width="8" height="8" transform="rotate(0,254,278)"/><circle cx="262" cy="70" r="4" transform="rotate(0,262,70)"/><rect x="258" y="98" width="8" height="8" transform="rotate(0,262,102)"/><path d="M 258 106v 8h 8v -4a 4 4, 0, 0, 0, -4 -4" transform="rotate(90,262,110)"/><path d="M 258 138v 8h 4a 4 4, 0, 0, 0, 0 -8" transform="rotate(0,262,142)"/><path d="M 258 154v 8h 8v -4a 4 4, 0, 0, 0, -4 -4" transform="rotate(-90,262,158)"/><path d="M 258 162v 8h 8v -4a 4 4, 0, 0, 0, -4 -4" transform="rotate(90,262,166)"/><path d="M 258 226v 8h 8v -4a 4 4, 0, 0, 0, -4 -4" transform="rotate(0,262,230)"/><rect x="258" y="234" width="8" height="8" transform="rotate(0,262,238)"/><rect x="258" y="242" width="8" height="8" transform="rotate(0,262,246)"/><rect x="258" y="250" width="8" height="8" transform="rotate(0,262,254)"/><rect x="258" y="258" width="8" height="8" transform="rotate(0,262,262)"/><rect x="258" y="266" width="8" height="8" transform="rotate(0,262,270)"/><rect x="258" y="274" width="8" height="8" transform="rotate(0,262,278)"/><rect x="258" y="282" width="8" height="8" transform="rotate(0,262,286)"/><path d="M 258 290v 8h 4a 4 4, 0, 0, 0, 0 -8" transform="rotate(90,262,294)"/><path d="M 266 74v 8h 4a 4 4, 0, 0, 0, 0 -8" transform="rotate(180,270,78)"/><path d="M 266 90v 8h 4a 4 4, 0, 0, 0, 0 -8" transform="rotate(-90,270,94)"/><path d="M 266 98v 8h 8v -4a 4 4, 0, 0, 0, -4 -4" transform="rotate(90,270,102)"/><path d="M 266 114v 8h 4a 4 4, 0, 0, 0, 0 -8" transform="rotate(-90,270,118)"/><path d="M 266 122v 8h 8v -4a 4 4, 0, 0, 0, -4 -4" transform="rotate(180,270,126)"/><path d="M 266 146v 8h 8v -4a 4 4, 0, 0, 0, -4 -4" transform="rotate(-90,270,150)"/><rect x="266" y="154" width="8" height="8" transform="rotate(0,270,158)"/><path d="M 266 178v 8h 4a 4 4, 0, 0, 0, 0 -8" transform="rotate(180,270,182)"/><path d="M 266 194v 8h 8v -4a 4 4, 0, 0, 0, -4 -4" transform="rotate(-90,270,198)"/><rect x="266" y="202" width="8" height="8" transform="rotate(0,270,206)"/><rect x="266" y="210" width="8" height="8" transform="rotate(0,270,214)"/><path d="M 266 218v 8h 4a 4 4, 0, 0, 0, 0 -8" transform="rotate(90,270,222)"/><rect x="266" y="242" width="8" height="8" transform="rotate(0,270,246)"/><path d="M 266 266v 8h 4a 4 4, 0, 0, 0, 0 -8" transform="rotate(0,270,270)"/><rect x="274" y="74" width="8" height="8" transform="rotate(0,278,78)"/><path d="M 274 82v 8h 4a 4 4, 0, 0, 0, 0 -8" transform="rotate(90,278,86)"/><rect x="274" y="122" width="8" height="8" transform="rotate(0,278,126)"/><rect x="274" y="130" width="8" height="8" transform="rotate(0,278,134)"/><rect x="274" y="138" width="8" height="8" transform="rotate(0,278,142)"/><rect x="274" y="146" width="8" height="8" transform="rotate(0,278,150)"/><rect x="274" y="154" width="8" height="8" transform="rotate(0,278,158)"/><rect x="274" y="178" width="8" height="8" transform="rotate(0,278,182)"/><rect x="274" y="186" width="8" height="8" transform="rotate(0,278,190)"/><rect x="274" y="194" width="8" height="8" transform="rotate(0,278,198)"/><rect x="274" y="202" width="8" height="8" transform="rotate(0,278,206)"/><path d="M 274 210v 8h 8v -4a 4 4, 0, 0, 0, -4 -4" transform="rotate(90,278,214)"/><path d="M 274 242v 8h 8v -4a 4 4, 0, 0, 0, -4 -4" transform="rotate(0,278,246)"/><path d="M 274 250v 8h 8v -4a 4 4, 0, 0, 0, -4 -4" transform="rotate(180,278,254)"/><path d="M 274 274v 8h 8v -4a 4 4, 0, 0, 0, -4 -4" transform="rotate(-90,278,278)"/><path d="M 274 282v 8h 8v -4a 4 4, 0, 0, 0, -4 -4" transform="rotate(180,278,286)"/><path d="M 282 66v 8h 4a 4 4, 0, 0, 0, 0 -8" transform="rotate(-90,286,70)"/><rect x="282" y="74" width="8" height="8" transform="rotate(0,286,78)"/><path d="M 282 114v 8h 4a 4 4, 0, 0, 0, 0 -8" transform="rotate(-90,286,118)"/><rect x="282" y="122" width="8" height="8" transform="rotate(0,286,126)"/><path d="M 282 138v 8h 4a 4 4, 0, 0, 0, 0 -8" transform="rotate(0,286,142)"/><path d="M 282 154v 8h 8v -4a 4 4, 0, 0, 0, -4 -4" transform="rotate(0,286,158)"/><rect x="282" y="162" width="8" height="8" transform="rotate(0,286,166)"/><rect x="282" y="170" width="8" height="8" transform="rotate(0,286,174)"/><rect x="282" y="178" width="8" height="8" transform="rotate(0,286,182)"/><path d="M 282 186v 8h 8v -4a 4 4, 0, 0, 0, -4 -4" transform="rotate(90,286,190)"/><path d="M 282 218v 8h 4a 4 4, 0, 0, 0, 0 -8" transform="rotate(180,286,222)"/><path d="M 282 234v 8h 4a 4 4, 0, 0, 0, 0 -8" transform="rotate(180,286,238)"/><path d="M 282 250v 8h 4a 4 4, 0, 0, 0, 0 -8" transform="rotate(0,286,254)"/><rect x="282" y="274" width="8" height="8" transform="rotate(0,286,278)"/><rect x="282" y="282" width="8" height="8" transform="rotate(0,286,286)"/><path d="M 290 74v 8h 4a 4 4, 0, 0, 0, 0 -8" transform="rotate(0,294,78)"/><path d="M 290 122v 8h 8v -4a 4 4, 0, 0, 0, -4 -4" transform="rotate(0,294,126)"/><path d="M 290 130v 8h 4a 4 4, 0, 0, 0, 0 -8" transform="rotate(90,294,134)"/><circle cx="294" cy="150" r="4" transform="rotate(0,294,150)"/><path d="M 290 162v 8h 8v -4a 4 4, 0, 0, 0, -4 -4" transform="rotate(0,294,166)"/><rect x="290" y="170" width="8" height="8" transform="rotate(0,294,174)"/><path d="M 290 178v 8h 8v -4a 4 4, 0, 0, 0, -4 -4" transform="rotate(90,294,182)"/><circle cx="294" cy="198" r="4" transform="rotate(0,294,198)"/><path d="M 290 218v 8h 4a 4 4, 0, 0, 0, 0 -8" transform="rotate(0,294,222)"/><path d="M 290 234v 8h 4a 4 4, 0, 0, 0, 0 -8" transform="rotate(0,294,238)"/><path d="M 290 258v 8h 4a 4 4, 0, 0, 0, 0 -8" transform="rotate(-90,294,262)"/><rect x="290" y="266" width="8" height="8" transform="rotate(0,294,270)"/><rect x="290" y="274" width="8" height="8" transform="rotate(0,294,278)"/><rect x="290" y="282" width="8" height="8" transform="rotate(0,294,286)"/><path d="M 290 290v 8h 4a 4 4, 0, 0, 0, 0 -8" transform="rotate(90,294,294)"/><path clip-rule="evenodd" d="M 2 22v 16a 20 20, 0, 0, 0, 20 20h 16a 20 20, 0, 0, 0, 20 -20v -16a 20 20, 0, 0, 0, -20 -20h -16a 20 20, 0, 0, 0, -20 20M 22 10h 16a 12 12, 0, 0, 1, 12 12v 16a 12 12, 0, 0, 1, -12 12h -16a 12 12, 0, 0, 1, -12 -12v -16a 12 12, 0, 0, 1, 12 -12" transform="rotate(0,30,30)"/><path d="M 18 18v 8h 8v -4a 4 4, 0, 0, 0, -4 -4" transform="rotate(-90,22,22)"/><rect x="18" y="26" width="8" height="8" transform="rotate(0,22,30)"/><path d="M 18 34v 8h 8v -4a 4 4, 0, 0, 0, -4 -4" transform="rotate(180,22,38)"/><rect x="26" y="18" width="8" height="8" transform="rotate(0,30,22)"/><rect x="26" y="26" width="8" height="8" transform="rotate(0,30,30)"/><rect x="26" y="34" width="8" height="8" transform="rotate(0,30,38)"/><path d="M 34 18v 8h 8v -4a 4 4, 0, 0, 0, -4 -4" transform="rotate(0,38,22)"/><rect x="34" y="26" width="8" height="8" transform="rotate(0,38,30)"/><path d="M 34 34v 8h 8v -4a 4 4, 0, 0, 0, -4 -4" transform="rotate(90,38,38)"/><path clip-rule="evenodd" d="M 242 22v 16a 20 20, 0, 0, 0, 20 20h 16a 20 20, 0, 0, 0, 20 -20v -16a 20 20, 0, 0, 0, -20 -20h -16a 20 20, 0, 0, 0, -20 20M 262 10h 16a 12 12, 0, 0, 1, 12 12v 16a 12 12, 0, 0, 1, -12 12h -16a 12 12, 0, 0, 1, -12 -12v -16a 12 12, 0, 0, 1, 12 -12" transform="rotate(90,270,30)"/><path d="M 258 18v 8h 8v -4a 4 4, 0, 0, 0, -4 -4" transform="rotate(-90,262,22)"/><rect x="258" y="26" width="8" height="8" transform="rotate(0,262,30)"/><path d="M 258 34v 8h 8v -4a 4 4, 0, 0, 0, -4 -4" transform="rotate(180,262,38)"/><rect x="266" y="18" width="8" height="8" transform="rotate(0,270,22)"/><rect x="266" y="26" width="8" height="8" transform="rotate(0,270,30)"/><rect x="266" y="34" width="8" height="8" transform="rotate(0,270,38)"/><path d="M 274 18v 8h 8v -4a 4 4, 0, 0, 0, -4 -4" transform="rotate(0,278,22)"/><rect x="274" y="26" width="8" height="8" transform="rotate(0,278,30)"/><path d="M 274 34v 8h 8v -4a 4 4, 0, 0, 0, -4 -4" transform="rotate(90,278,38)"/><path clip-rule="evenodd" d="M 2 262v 16a 20 20, 0, 0, 0, 20 20h 16a 20 20, 0, 0, 0, 20 -20v -16a 20 20, 0, 0, 0, -20 -20h -16a 20 20, 0, 0, 0, -20 20M 22 250h 16a 12 12, 0, 0, 1, 12 12v 16a 12 12, 0, 0, 1, -12 12h -16a 12 12, 0, 0, 1, -12 -12v -16a 12 12, 0, 0, 1, 12 -12" transform="rotate(-90,30,270)"/><path d="M 18 258v 8h 8v -4a 4 4, 0, 0, 0, -4 -4" transform="rotate(-90,22,262)"/><rect x="18" y="266" width="8" height="8" transform="rotate(0,22,270)"/><path d="M 18 274v 8h 8v -4a 4 4, 0, 0, 0, -4 -4" transform="rotate(180,22,278)"/><rect x="26" y="258" width="8" height="8" transform="rotate(0,30,262)"/><rect x="26" y="266" width="8" height="8" transform="rotate(0,30,270)"/><rect x="26" y="274" width="8" height="8" transform="rotate(0,30,278)"/><path d="M 34 258v 8h 8v -4a 4 4, 0, 0, 0, -4 -4" transform="rotate(0,38,262)"/><rect x="34" y="266" width="8" height="8" transform="rotate(0,38,270)"/><path d="M 34 274v 8h 8v -4a 4 4, 0, 0, 0, -4 -4" transform="rotate(90,38,278)"/></clipPath></defs><rect x="0" y="0" height="300" width="300" clip-path="url('#clip-path-background-color')" fill="#fff"/><rect x="2" y="2" height="296" width="296" clip-path="url('#clip-path-dot-color')" fill="#000"/></svg>