<?xml version="1.0" standalone="no"?>
<svg xmlns="http://www.w3.org/2000/svg" width="300" height="300"><defs><clipPath id="clip-path-dot-color"><circle cx="10" cy="100" r="5" transform="rotate(0,10,100)"/><circle cx="10" cy="150" r="5" transform="rotate(0,10,150)"/><path d="M 5 175v 10h 5a 5 5, 0, 0, 0, 0 -10" transform="rotate(-90,10,180)"/><rect x="5" y="185" width="10" height="10" transform="rotate(0,10,190)"/><path d="M 5 195v 10h 5a 5 5, 0, 0, 0, 0 -10" transform="rotate(90,10,200)"/><path d="M 15 115v 10h 10v -5a 5 5, 0, 0, 0, -5 -5" transform="rotate(-90,20,120)"/><rect x="15" y="125" width="10" height="10" transform="rotate(0,20,130)"/><path d="M 15 135v 10h 10v -5a 5 5, 0, 0, 0, -5 -5" transform="rotate(180,20,140)"/><path d="M 15 155v 10h 5a 5 5, 0, 0, 0, 0 -10" transform="rotate(-90,20,160)"/><path d="M 15 165v 10h 10v -5a 5 5, 0, 0, 0, -5 -5" transform="rotate(180,20,170)"/><path d="M 15 205v 10h 5a 5 5, 0, 0, 0, 0 -10" transform="rotate(180,20,210)"/><path d="M 25 85v 10h 5a 5 5, 0, 0, 0, 0 -10" transform="rotate(-90,30,90)"/><path d="M 25 95v 10h 5a 5 5, 0, 0, 0, 0 -10" transform="rotate(90,30,100)"/><path d="M 25 115v 10h 5a 5 5, 0, 0, 0, 0 -10" transform="rotate(0,30,120)"/><path d="M 25 135v 10h 5a 5 5, 0, 0, 0, 0 -10" transform="rotate(0,30,140)"/><rect x="25" y="165" width="10" height="10" transform="rotate(0,30,170)"/><rect x="25" y="175" width="10" height="10" transform="rotate(0,30,180)"/><rect x="25" y="185" width="10" height="10" transform="rotate(0,30,190)"/><rect x="25" y="195" width="10" height="10" transform="rotate(0,30,200)"/><path d="M 25 205v 10h 10v -5a 5 5, 0, 0, 0, -5 -5" transform="rotate(90,30,210)"/><circle cx="40" cy="110" r="5" transform="rotate(0,40,110)"/><path d="M 35 155v 10h 5a 5 5, 0, 0, 0, 0 -10" transform="rotate(-90,40,160)"/><path d="M 35 165v 10h 10v -5a 5 5, 0, 0, 0, -5 -5" transform="rotate(90,40,170)"/><rect x="35" y="185" width="10" height="10" transform="rotate(0,40,190)"/><path d="M 35 195v 10h 10v -5a 5 5, 0, 0, 0, -5 -5" transform="rotate(90,40,200)"/><path d="M 45 85v 10h 10v -5a 5 5, 0, 0, 0, -5 -5" transform="rotate(-90,50,90)"/><path d="M 45 95v 10h 10v -5a 5 5, 0, 0, 0, -5 -5" transform="rotate(180,50,100)"/><path d="M 45 115v 10h 5a 5 5, 0, 0, 0, 0 -10" transform="rotate(-90,50,120)"/><rect x="45" y="125" width="10" height="10" transform="rotate(0,50,130)"/><path d="M 45 135v 10h 10v -5a 5 5, 0, 0, 0, -5 -5" transform="rotate(180,50,140)"/><rect x="45" y="185" width="10" height="10" transform="rotate(0,50,190)"/><rect x="55" y="85" width="10" height="10" transform="rotate(0,60,90)"/><path d="M 55 95v 10h 10v -5a 5 5, 0, 0, 0, -5 -5" transform="rotate(90,60,100)"/><rect x="55" y="125" width="10" height="10" transform="rotate(0,60,130)"/><rect x="55" y="135" width="10" height="10" transform="rotate(0,60,140)"/><rect x="55" y="145" width="10" height="10" transform="rotate(0,60,150)"/><path d="M 55 155v 10h 5a 5 5, 0, 0, 0, 0 -10" transform="rotate(90,60,160)"/><rect x="55" y="185" width="10" height="10" transform="rotate(0,60,190)"/><rect x="55" y="195" width="10" height="10" transform="rotate(0,60,200)"/><path d="M 55 205v 10h 10v -5a 5 5, 0, 0, 0, -5 -5" transform="rotate(180,60,210)"/><path d="M 65 85v 10h 5a 5 5, 0, 0, 0, 0 -10" transform="rotate(0,70,90)"/><path d="M 65 105v 10h 5a 5 5, 0, 0, 0, 0 -10" transform="rotate(180,70,110)"/><path d="M 65 125v 10h 5a 5 5, 0, 0, 0, 0 -10" transform="rotate(0,70,130)"/><rect x="65" y="145" width="10" height="10" transform="rotate(0,70,150)"/><path d="M 65 165v 10h 5a 5 5, 0, 0, 0, 0 -10" transform="rotate(180,70,170)"/><rect x="65" y="185" width="10" height="10" transform="rotate(0,70,190)"/><rect x="65" y="205" width="10" height="10" transform="rotate(0,70,210)"/><path d="M 75 95v 10h 5a 5 5, 0, 0, 0, 0 -10" transform="rotate(-90,80,100)"/><rect x="75" y="105" width="10" height="10" transform="rotate(0,80,110)"/><path d="M 75 145v 10h 10v -5a 5 5, 0, 0, 0, -5 -5" transform="rotate(0,80,150)"/><rect x="75" y="155" width="10" height="10" transform="rotate(0,80,160)"/><rect x="75" y="165" width="10" height="10" transform="rotate(0,80,170)"/><rect x="75" y="175" width="10" height="10" transform="rotate(0,80,180)"/><rect x="75" y="185" width="10" height="10" transform="rotate(0,80,190)"/><rect x="75" y="195" width="10" height="10" transform="rotate(0,80,200)"/><rect x="75" y="205" width="10" height="10" transform="rotate(0,80,210)"/><circle cx="90" cy="20" r="5" transform="rotate(0,90,20)"/><circle cx="90" cy="50" r="5" transform="rotate(0,90,50)"/><circle cx="90" cy="70" r="5" transform="rotate(0,90,70)"/><circle cx="90" cy="90" r="5" transform="rotate(0,90,90)"/><rect x="85" y="105" width="10" height="10" transform="rotate(0,90,110)"/><rect x="85" y="115" width="10" height="10" transform="rotate(0,90,120)"/><rect x="85" y="125" width="10" height="10" transform="rotate(0,90,130)"/><path d="M 85 135v 10h 5a 5 5, 0, 0, 0, 0 -10" transform="rotate(90,90,140)"/><rect x="85" y="155" width="10" height="10" transform="rotate(0,90,160)"/><path d="M 85 185v 10h 5a 5 5, 0, 0, 0, 0 -10" transform="rotate(0,90,190)"/><rect x="85" y="205" width="10" height="10" transform="rotate(0,90,210)"/><path d="M 85 215v 10h 5a 5 5, 0, 0, 0, 0 -10" transform="rotate(90,90,220)"/><path d="M 85 235v 10h 10v -5a 5 5, 0, 0, 0, -5 -5" transform="rotate(-90,90,240)"/><path d="M 85 245v 10h 10v -5a 5 5, 0, 0, 0, -5 -5" transform="rotate(180,90,250)"/><circle cx="90" cy="270" r="5" transform="rotate(0,90,270)"/><path d="M 95 25v 10h 10v -5a 5 5, 0, 0, 0, -5 -5" transform="rotate(-90,100,30)"/><path d="M 95 35v 10h 5a 5 5, 0, 0, 0, 0 -10" transform="rotate(90,100,40)"/><circle cx="100" cy="80" r="5" transform="rotate(0,100,80)"/><path d="M 95 105v 10h 10v -5a 5 5, 0, 0, 0, -5 -5" transform="rotate(0,100,110)"/><rect x="95" y="115" width="10" height="10" transform="rotate(0,100,120)"/><path d="M 95 155v 10h 5a 5 5, 0, 0, 0, 0 -10" transform="rotate(0,100,160)"/><path d="M 95 195v 10h 5a 5 5, 0, 0, 0, 0 -10" transform="rotate(-90,100,200)"/><rect x="95" y="205" width="10" height="10" transform="rotate(0,100,210)"/><path d="M 95 225v 10h 5a 5 5, 0, 0, 0, 0 -10" transform="rotate(-90,100,230)"/><rect x="95" y="235" width="10" height="10" transform="rotate(0,100,240)"/><rect x="95" y="245" width="10" height="10" transform="rotate(0,100,250)"/><path d="M 95 255v 10h 5a 5 5, 0, 0, 0, 0 -10" transform="rotate(90,100,260)"/><path d="M 95 275v 10h 5a 5 5, 0, 0, 0, 0 -10" transform="rotate(-90,100,280)"/><path d="M 95 285v 10h 10v -5a 5 5, 0, 0, 0, -5 -5" transform="rotate(180,100,290)"/><path d="M 105 25v 10h 5a 5 5, 0, 0, 0, 0 -10" transform="rotate(0,110,30)"/><path d="M 105 45v 10h 10v -5a 5 5, 0, 0, 0, -5 -5" transform="rotate(-90,110,50)"/><rect x="105" y="55" width="10" height="10" transform="rotate(0,110,60)"/><path d="M 105 65v 10h 5a 5 5, 0, 0, 0, 0 -10" transform="rotate(90,110,70)"/><circle cx="110" cy="100" r="5" transform="rotate(0,110,100)"/><path d="M 105 115v 10h 10v -5a 5 5, 0, 0, 0, -5 -5" transform="rotate(0,110,120)"/><rect x="105" y="125" width="10" height="10" transform="rotate(0,110,130)"/><rect x="105" y="135" width="10" height="10" transform="rotate(0,110,140)"/><path d="M 105 145v 10h 10v -5a 5 5, 0, 0, 0, -5 -5" transform="rotate(180,110,150)"/><path d="M 105 175v 10h 10v -5a 5 5, 0, 0, 0, -5 -5" transform="rotate(-90,110,180)"/><path d="M 105 185v 10h 10v -5a 5 5, 0, 0, 0, -5 -5" transform="rotate(180,110,190)"/><path d="M 105 205v 10h 10v -5a 5 5, 0, 0, 0, -5 -5" transform="rotate(0,110,210)"/><path d="M 105 215v 10h 10v -5a 5 5, 0, 0, 0, -5 -5" transform="rotate(180,110,220)"/><path d="M 105 235v 10h 5a 5 5, 0, 0, 0, 0 -10" transform="rotate(0,110,240)"/><rect x="105" y="285" width="10" height="10" transform="rotate(0,110,290)"/><path d="M 115 45v 10h 10v -5a 5 5, 0, 0, 0, -5 -5" transform="rotate(0,120,50)"/><path d="M 115 55v 10h 10v -5a 5 5, 0, 0, 0, -5 -5" transform="rotate(90,120,60)"/><path d="M 115 75v 10h 5a 5 5, 0, 0, 0, 0 -10" transform="rotate(-90,120,80)"/><path d="M 115 85v 10h 10v -5a 5 5, 0, 0, 0, -5 -5" transform="rotate(180,120,90)"/><rect x="115" y="125" width="10" height="10" transform="rotate(0,120,130)"/><rect x="115" y="145" width="10" height="10" transform="rotate(0,120,150)"/><path d="M 115 165v 10h 5a 5 5, 0, 0, 0, 0 -10" transform="rotate(-90,120,170)"/><rect x="115" y="175" width="10" height="10" transform="rotate(0,120,180)"/><rect x="115" y="185" width="10" height="10" transform="rotate(0,120,190)"/><path d="M 115 215v 10h 5a 5 5, 0, 0, 0, 0 -10" transform="rotate(0,120,220)"/><circle cx="120" cy="260" r="5" transform="rotate(0,120,260)"/><path d="M 115 275v 10h 5a 5 5, 0, 0, 0, 0 -10" transform="rotate(-90,120,280)"/><rect x="115" y="285" width="10" height="10" transform="rotate(0,120,290)"/><circle cx="130" cy="70" r="5" transform="rotate(0,130,70)"/><rect x="125" y="85" width="10" height="10" transform="rotate(0,130,90)"/><path d="M 125 115v 10h 5a 5 5, 0, 0, 0, 0 -10" transform="rotate(-90,130,120)"/><rect x="125" y="125" width="10" height="10" transform="rotate(0,130,130)"/><rect x="125" y="135" width="10" height="10" transform="rotate(0,130,140)"/><rect x="125" y="145" width="10" height="10" transform="rotate(0,130,150)"/><rect x="125" y="175" width="10" height="10" transform="rotate(0,130,180)"/><rect x="125" y="185" width="10" height="10" transform="rotate(0,130,190)"/><rect x="125" y="195" width="10" height="10" transform="rotate(0,130,200)"/><path d="M 125 205v 10h 10v -5a 5 5, 0, 0, 0, -5 -5" transform="rotate(180,130,210)"/><circle cx="130" cy="240" r="5" transform="rotate(0,130,240)"/><rect x="125" y="285" width="10" height="10" transform="rotate(0,130,290)"/><path d="M 135 15v 10h 5a 5 5, 0, 0, 0, 0 -10" transform="rotate(-90,140,20)"/><rect x="135" y="25" width="10" height="10" transform="rotate(0,140,30)"/><path d="M 135 35v 10h 10v -5a 5 5, 0, 0, 0, -5 -5" transform="rotate(180,140,40)"/><circle cx="140" cy="60" r="5" transform="rotate(0,140,60)"/><rect x="135" y="85" width="10" height="10" transform="rotate(0,140,90)"/><rect x="135" y="145" width="10" height="10" transform="rotate(0,140,150)"/><path d="M 135 165v 10h 10v -5a 5 5, 0, 0, 0, -5 -5" transform="rotate(-90,140,170)"/><rect x="135" y="175" width="10" height="10" transform="rotate(0,140,180)"/><rect x="135" y="185" width="10" height="10" transform="rotate(0,140,190)"/><path d="M 135 205v 10h 5a 5 5, 0, 0, 0, 0 -10" transform="rotate(0,140,210)"/><circle cx="140" cy="230" r="5" transform="rotate(0,140,230)"/><path d="M 135 245v 10h 5a 5 5, 0, 0, 0, 0 -10" transform="rotate(180,140,250)"/><path d="M 135 265v 10h 5a 5 5, 0, 0, 0, 0 -10" transform="rotate(-90,140,270)"/><rect x="135" y="275" width="10" height="10" transform="rotate(0,140,280)"/><rect x="135" y="285" width="10" height="10" transform="rotate(0,140,290)"/><circle cx="150" cy="10" r="5" transform="rotate(0,150,10)"/><path d="M 145 35v 10h 10v -5a 5 5, 0, 0, 0, -5 -5" transform="rotate(0,150,40)"/><path d="M 145 45v 10h 5a 5 5, 0, 0, 0, 0 -10" transform="rotate(90,150,50)"/><circle cx="150" cy="70" r="5" transform="rotate(0,150,70)"/><rect x="145" y="85" width="10" height="10" transform="rotate(0,150,90)"/><rect x="145" y="95" width="10" height="10" transform="rotate(0,150,100)"/><path d="M 145 105v 10h 10v -5a 5 5, 0, 0, 0, -5 -5" transform="rotate(180,150,110)"/><path d="M 145 145v 10h 10v -5a 5 5, 0, 0, 0, -5 -5" transform="rotate(0,150,150)"/><rect x="145" y="155" width="10" height="10" transform="rotate(0,150,160)"/><path d="M 145 165v 10h 10v -5a 5 5, 0, 0, 0, -5 -5" transform="rotate(90,150,170)"/><path d="M 145 185v 10h 5a 5 5, 0, 0, 0, 0 -10" transform="rotate(0,150,190)"/><path d="M 145 245v 10h 5a 5 5, 0, 0, 0, 0 -10" transform="rotate(0,150,250)"/><rect x="145" y="285" width="10" height="10" transform="rotate(0,150,290)"/><circle cx="160" cy="30" r="5" transform="rotate(0,160,30)"/><circle cx="160" cy="60" r="5" transform="rotate(0,160,60)"/><path d="M 155 75v 10h 10v -5a 5 5, 0, 0, 0, -5 -5" transform="rotate(-90,160,80)"/><rect x="155" y="85" width="10" height="10" transform="rotate(0,160,90)"/><rect x="155" y="105" width="10" height="10" transform="rotate(0,160,110)"/><rect x="155" y="115" width="10" height="10" transform="rotate(0,160,120)"/><rect x="155" y="125" width="10" height="10" transform="rotate(0,160,130)"/><path d="M 155 135v 10h 10v -5a 5 5, 0, 0, 0, -5 -5" transform="rotate(180,160,140)"/><path d="M 155 205v 10h 5a 5 5, 0, 0, 0, 0 -10" transform="rotate(180,160,210)"/><path d="M 155 235v 10h 5a 5 5, 0, 0, 0, 0 -10" transform="rotate(180,160,240)"/><circle cx="160" cy="260" r="5" transform="rotate(0,160,260)"/><path d="M 155 285v 10h 5a 5 5, 0, 0, 0, 0 -10" transform="rotate(0,160,290)"/><path d="M 165 5v 10h 5a 5 5, 0, 0, 0, 0 -10" transform="rotate(180,170,10)"/><path d="M 165 65v 10h 5a 5 5, 0, 0, 0, 0 -10" transform="rotate(-90,170,70)"/><rect x="165" y="75" width="10" height="10" transform="rotate(0,170,80)"/><rect x="165" y="85" width="10" height="10" transform="rotate(0,170,90)"/><path d="M 165 105v 10h 10v -5a 5 5, 0, 0, 0, -5 -5" transform="rotate(0,170,110)"/><path d="M 165 115v 10h 10v -5a 5 5, 0, 0, 0, -5 -5" transform="rotate(90,170,120)"/><rect x="165" y="135" width="10" height="10" transform="rotate(0,170,140)"/><path d="M 165 145v 10h 5a 5 5, 0, 0, 0, 0 -10" transform="rotate(90,170,150)"/><circle cx="170" cy="170" r="5" transform="rotate(0,170,170)"/><path d="M 165 195v 10h 5a 5 5, 0, 0, 0, 0 -10" transform="rotate(-90,170,200)"/><rect x="165" y="205" width="10" height="10" transform="rotate(0,170,210)"/><path d="M 165 215v 10h 10v -5a 5 5, 0, 0, 0, -5 -5" transform="rotate(180,170,220)"/><rect x="165" y="235" width="10" height="10" transform="rotate(0,170,240)"/><circle cx="170" cy="280" r="5" transform="rotate(0,170,280)"/><path d="M 175 5v 10h 10v -5a 5 5, 0, 0, 0, -5 -5" transform="rotate(0,180,10)"/><path d="M 175 15v 10h 5a 5 5, 0, 0, 0, 0 -10" transform="rotate(90,180,20)"/><path d="M 175 45v 10h 5a 5 5, 0, 0, 0, 0 -10" transform="rotate(180,180,50)"/><rect x="175" y="85" width="10" height="10" transform="rotate(0,180,90)"/><path d="M 175 125v 10h 10v -5a 5 5, 0, 0, 0, -5 -5" transform="rotate(-90,180,130)"/><path d="M 175 135v 10h 10v -5a 5 5, 0, 0, 0, -5 -5" transform="rotate(90,180,140)"/><path d="M 175 175v 10h 5a 5 5, 0, 0, 0, 0 -10" transform="rotate(-90,180,180)"/><path d="M 175 185v 10h 10v -5a 5 5, 0, 0, 0, -5 -5" transform="rotate(180,180,190)"/><path d="M 175 215v 10h 10v -5a 5 5, 0, 0, 0, -5 -5" transform="rotate(0,180,220)"/><rect x="175" y="225" width="10" height="10" transform="rotate(0,180,230)"/><rect x="175" y="235" width="10" height="10" transform="rotate(0,180,240)"/><path d="M 175 245v 10h 10v -5a 5 5, 0, 0, 0, -5 -5" transform="rotate(180,180,250)"/><path d="M 175 265v 10h 5a 5 5, 0, 0, 0, 0 -10" transform="rotate(180,180,270)"/><path d="M 175 285v 10h 5a 5 5, 0, 0, 0, 0 -10" transform="rotate(180,180,290)"/><path d="M 185 25v 10h 5a 5 5, 0, 0, 0, 0 -10" transform="rotate(180,190,30)"/><path d="M 185 45v 10h 5a 5 5, 0, 0, 0, 0 -10" transform="rotate(0,190,50)"/><path d="M 185 65v 10h 5a 5 5, 0, 0, 0, 0 -10" transform="rotate(-90,190,70)"/><rect x="185" y="75" width="10" height="10" transform="rotate(0,190,80)"/><rect x="185" y="85" width="10" height="10" transform="rotate(0,190,90)"/><path d="M 185 95v 10h 10v -5a 5 5, 0, 0, 0, -5 -5" transform="rotate(180,190,100)"/><rect x="185" y="125" width="10" height="10" transform="rotate(0,190,130)"/><path d="M 185 155v 10h 5a 5 5, 0, 0, 0, 0 -10" transform="rotate(180,190,160)"/><rect x="185" y="185" width="10" height="10" transform="rotate(0,190,190)"/><circle cx="190" cy="210" r="5" transform="rotate(0,190,210)"/><path d="M 185 245v 10h 5a 5 5, 0, 0, 0, 0 -10" transform="rotate(0,190,250)"/><path d="M 185 265v 10h 5a 5 5, 0, 0, 0, 0 -10" transform="rotate(0,190,270)"/><path d="M 185 285v 10h 5a 5 5, 0, 0, 0, 0 -10" transform="rotate(0,190,290)"/><rect x="195" y="25" width="10" height="10" transform="rotate(0,200,30)"/><circle cx="200" cy="60" r="5" transform="rotate(0,200,60)"/><path d="M 195 75v 10h 10v -5a 5 5, 0, 0, 0, -5 -5" transform="rotate(0,200,80)"/><rect x="195" y="85" width="10" height="10" transform="rotate(0,200,90)"/><path d="M 195 95v 10h 10v -5a 5 5, 0, 0, 0, -5 -5" transform="rotate(90,200,100)"/><path d="M 195 125v 10h 5a 5 5, 0, 0, 0, 0 -10" transform="rotate(0,200,130)"/><path d="M 195 155v 10h 10v -5a 5 5, 0, 0, 0, -5 -5" transform="rotate(0,200,160)"/><rect x="195" y="165" width="10" height="10" transform="rotate(0,200,170)"/><rect x="195" y="175" width="10" height="10" transform="rotate(0,200,180)"/><path d="M 195 185v 10h 10v -5a 5 5, 0, 0, 0, -5 -5" transform="rotate(90,200,190)"/><path d="M 195 235v 10h 5a 5 5, 0, 0, 0, 0 -10" transform="rotate(180,200,240)"/><path d="M 195 255v 10h 5a 5 5, 0, 0, 0, 0 -10" transform="rotate(180,200,260)"/><circle cx="200" cy="280" r="5" transform="rotate(0,200,280)"/><path d="M 205 5v 10h 5a 5 5, 0, 0, 0, 0 -10" transform="rotate(-90,210,10)"/><rect x="205" y="15" width="10" height="10" transform="rotate(0,210,20)"/><path d="M 205 25v 10h 10v -5a 5 5, 0, 0, 0, -5 -5" transform="rotate(90,210,30)"/><circle cx="210" cy="50" r="5" transform="rotate(0,210,50)"/><circle cx="210" cy="70" r="5" transform="rotate(0,210,70)"/><path d="M 205 105v 10h 5a 5 5, 0, 0, 0, 0 -10" transform="rotate(-90,210,110)"/><path d="M 205 115v 10h 5a 5 5, 0, 0, 0, 0 -10" transform="rotate(90,210,120)"/><path d="M 205 175v 10h 5a 5 5, 0, 0, 0, 0 -10" transform="rotate(0,210,180)"/><path d="M 205 205v 10h 10v -5a 5 5, 0, 0, 0, -5 -5" transform="rotate(-90,210,210)"/><rect x="205" y="215" width="10" height="10" transform="rotate(0,210,220)"/><rect x="205" y="225" width="10" height="10" transform="rotate(0,210,230)"/><rect x="205" y="235" width="10" height="10" transform="rotate(0,210,240)"/><rect x="205" y="245" width="10" height="10" transform="rotate(0,210,250)"/><path d="M 205 255v 10h 10v -5a 5 5, 0, 0, 0, -5 -5" transform="rotate(90,210,260)"/><path d="M 205 285v 10h 5a 5 5, 0, 0, 0, 0 -10" transform="rotate(180,210,290)"/><circle cx="220" cy="90" r="5" transform="rotate(0,220,90)"/><path d="M 215 135v 10h 5a 5 5, 0, 0, 0, 0 -10" transform="rotate(-90,220,140)"/><rect x="215" y="145" width="10" height="10" transform="rotate(0,220,150)"/><rect x="215" y="155" width="10" height="10" transform="rotate(0,220,160)"/><path d="M 215 165v 10h 5a 5 5, 0, 0, 0, 0 -10" transform="rotate(90,220,170)"/><circle cx="220" cy="190" r="5" transform="rotate(0,220,190)"/><rect x="215" y="205" width="10" height="10" transform="rotate(0,220,210)"/><rect x="215" y="245" width="10" height="10" transform="rotate(0,220,250)"/><path d="M 215 265v 10h 5a 5 5, 0, 0, 0, 0 -10" transform="rotate(-90,220,270)"/><rect x="215" y="275" width="10" height="10" transform="rotate(0,220,280)"/><rect x="215" y="285" width="10" height="10" transform="rotate(0,220,290)"/><path d="M 225 95v 10h 10v -5a 5 5, 0, 0, 0, -5 -5" transform="rotate(-90,230,100)"/><rect x="225" y="105" width="10" height="10" transform="rotate(0,230,110)"/><rect x="225" y="115" width="10" height="10" transform="rotate(0,230,120)"/><path d="M 225 125v 10h 10v -5a 5 5, 0, 0, 0, -5 -5" transform="rotate(180,230,130)"/><rect x="225" y="155" width="10" height="10" transform="rotate(0,230,160)"/><path d="M 225 175v 10h 5a 5 5, 0, 0, 0, 0 -10" transform="rotate(180,230,180)"/><path d="M 225 195v 10h 10v -5a 5 5, 0, 0, 0, -5 -5" transform="rotate(-90,230,200)"/><rect x="225" y="205" width="10" height="10" transform="rotate(0,230,210)"/><circle cx="230" cy="230" r="5" transform="rotate(0,230,230)"/><rect x="225" y="245" width="10" height="10" transform="rotate(0,230,250)"/><path d="M 225 285v 10h 5a 5 5, 0, 0, 0, 0 -10" transform="rotate(0,230,290)"/><rect x="235" y="95" width="10" height="10" transform="rotate(0,240,100)"/><rect x="235" y="105" width="10" height="10" transform="rotate(0,240,110)"/><rect x="235" y="115" width="10" height="10" transform="rotate(0,240,120)"/><rect x="235" y="125" width="10" height="10" transform="rotate(0,240,130)"/><rect x="235" y="135" width="10" height="10" transform="rotate(0,240,140)"/><rect x="235" y="145" width="10" height="10" transform="rotate(0,240,150)"/><rect x="235" y="155" width="10" height="10" transform="rotate(0,240,160)"/><rect x="235" y="165" width="10" height="10" transform="rotate(0,240,170)"/><rect x="235" y="175" width="10" height="10" transform="rotate(0,240,180)"/><rect x="235" y="185" width="10" height="10" transform="rotate(0,240,190)"/><rect x="235" y="195" width="10" height="10" transform="rotate(0,240,200)"/><rect x="235" y="205" width="10" height="10" transform="rotate(0,240,210)"/><rect x="235" y="245" width="10" height="10" transform="rotate(0,240,250)"/><path d="M 235 255v 10h 5a 5 5, 0, 0, 0, 0 -10" transform="rotate(90,240,260)"/><path d="M 235 275v 10h 5a 5 5, 0, 0, 0, 0 -10" transform="rotate(180,240,280)"/><path d="M 245 85v 10h 5a 5 5, 0, 0, 0, 0 -10" transform="rotate(-90,250,90)"/><rect x="245" y="95" width="10" height="10" transform="rotate(0,250,100)"/><rect x="245" y="145" width="10" height="10" transform="rotate(0,250,150)"/><path d="M 245 155v 10h 10v -5a 5 5, 0, 0, 0, -5 -5" transform="rotate(90,250,160)"/><path d="M 245 185v 10h 10v -5a 5 5, 0, 0, 0, -5 -5" transform="rotate(0,250,190)"/><rect x="245" y="195" width="10" height="10" transform="rotate(0,250,200)"/><rect x="245" y="205" width="10" height="10" transform="rotate(0,250,210)"/><rect x="245" y="215" width="10" height="10" transform="rotate(0,250,220)"/><rect x="245" y="225" width="10" height="10" transform="rotate(0,250,230)"/><rect x="245" y="235" width="10" height="10" transform="rotate(0,250,240)"/><path d="M 245 245v 10h 10v -5a 5 5, 0, 0, 0, -5 -5" transform="rotate(90,250,250)"/><rect x="245" y="275" width="10" height="10" transform="rotate(0,250,280)"/><path d="M 245 285v 10h 5a 5 5, 0, 0, 0, 0 -10" transform="rotate(90,250,290)"/><path d="M 255 95v 10h 5a 5 5, 0, 0, 0, 0 -10" transform="rotate(0,260,100)"/><path d="M 255 135v 10h 10v -5a 5 5, 0, 0, 0, -5 -5" transform="rotate(-90,260,140)"/><path d="M 255 145v 10h 10v -5a 5 5, 0, 0, 0, -5 -5" transform="rotate(90,260,150)"/><path d="M 255 165v 10h 10v -5a 5 5, 0, 0, 0, -5 -5" transform="rotate(-90,260,170)"/><path d="M 255 175v 10h 10v -5a 5 5, 0, 0, 0, -5 -5" transform="rotate(180,260,180)"/><path d="M 255 235v 10h 5a 5 5, 0, 0, 0, 0 -10" transform="rotate(0,260,240)"/><path d="M 255 255v 10h 5a 5 5, 0, 0, 0, 0 -10" transform="rotate(180,260,260)"/><rect x="255" y="275" width="10" height="10" transform="rotate(0,260,280)"/><circle cx="270" cy="120" r="5" transform="rotate(0,270,120)"/><rect x="265" y="135" width="10" height="10" transform="rotate(0,270,140)"/><path d="M 265 165v 10h 10v -5a 5 5, 0, 0, 0, -5 -5" transform="rotate(0,270,170)"/><rect x="265" y="175" width="10" height="10" transform="rotate(0,270,180)"/><rect x="265" y="185" width="10" height="10" transform="rotate(0,270,190)"/><rect x="265" y="195" width="10" height="10" transform="rotate(0,270,200)"/><rect x="265" y="205" width="10" height="10" transform="rotate(0,270,210)"/><path d="M 265 215v 10h 10v -5a 5 5, 0, 0, 0, -5 -5" transform="rotate(180,270,220)"/><rect x="265" y="255" width="10" height="10" transform="rotate(0,270,260)"/><rect x="265" y="275" width="10" height="10" transform="rotate(0,270,280)"/><path d="M 265 285v 10h 10v -5a 5 5, 0, 0, 0, -5 -5" transform="rotate(180,270,290)"/><path d="M 275 85v 10h 5a 5 5, 0, 0, 0, 0 -10" transform="rotate(-90,280,90)"/><rect x="275" y="95" width="10" height="10" transform="rotate(0,280,100)"/><path d="M 275 105v 10h 10v -5a 5 5, 0, 0, 0, -5 -5" transform="rotate(180,280,110)"/><path d="M 275 135v 10h 10v -5a 5 5, 0, 0, 0, -5 -5" transform="rotate(0,280,140)"/><path d="M 275 145v 10h 5a 5 5, 0, 0, 0, 0 -10" transform="rotate(90,280,150)"/><rect x="275" y="175" width="10" height="10" transform="rotate(0,280,180)"/><rect x="275" y="205" width="10" height="10" transform="rotate(0,280,210)"/><rect x="275" y="215" width="10" height="10" transform="rotate(0,280,220)"/><rect x="275" y="225" width="10" height="10" transform="rotate(0,280,230)"/><path d="M 275 235v 10h 5a 5 5, 0, 0, 0, 0 -10" transform="rotate(90,280,240)"/><rect x="275" y="255" width="10" height="10" transform="rotate(0,280,260)"/><rect x="275" y="275" width="10" height="10" transform="rotate(0,280,280)"/><path d="M 275 285v 10h 10v -5a 5 5, 0, 0, 0, -5 -5" transform="rotate(90,280,290)"/><path d="M 285 95v 10h 10v -5a 5 5, 0, 0, 0, -5 -5" transform="rotate(0,290,100)"/><rect x="285" y="105" width="10" height="10" transform="rotate(0,290,110)"/><path d="M 285 115v 10h 5a 5 5, 0, 0, 0, 0 -10" transform="rotate(90,290,120)"/><circle cx="290" cy="160" r="5" transform="rotate(0,290,160)"/><path d="M 285 175v 10h 5a 5 5, 0, 0, 0, 0 -10" transform="rotate(0,290,180)"/><path d="M 285 205v 10h 5a 5 5, 0, 0, 0, 0 -10" transform="rotate(0,290,210)"/><path d="M 285 225v 10h 5a 5 5, 0, 0, 0, 0 -10" transform="rotate(0,290,230)"/><path d="M 285 245v 10h 5a 5 5, 0, 0, 0, 0 -10" transform="rotate(-90,290,250)"/><path d="M 285 255v 10h 10v -5a 5 5, 0, 0, 0, -5 -5" transform="rotate(90,290,260)"/><path d="M 285 275v 10h 5a 5 5, 0, 0, 0, 0 -10" transform="rotate(0,290,280)"/><path clip-rule="evenodd" d="M 5 30v 20a 25 25, 0, 0, 0, 25 25h 20a 25 25, 0, 0, 0, 25 -25v -20a 25 25, 0, 0, 0, -25 -25h -20a 25 25, 0, 0, 0, -25 25M 30 15h 20a 15 15, 0, 0, 1, 15 15v 20a 15 15, 0, 0, 1, -15 15h -20a 15 15, 0, 0, 1, -15 -15v -20a 15 15, 0, 0, 1, 15 -15" transform="rotate(0,40,40)"/><path d="M 25 25v 10h 10v -5a 5 5, 0, 0, 0, -5 -5" transform="rotate(-90,30,30)"/><rect x="25" y="35" width="10" height="10" transform="rotate(0,30,40)"/><path d="M 25 45v 10h 10v -5a 5 5, 0, 0, 0, -5 -5" transform="rotate(180,30,50)"/><rect x="35" y="25" width="10" height="10" transform="rotate(0,40,30)"/><rect x="35" y="35" width="10" height="10" transform="rotate(0,40,40)"/><rect x="35" y="45" width="10" height="10" transform="rotate(0,40,50)"/><path d="M 45 25v 10h 10v -5a 5 5, 0, 0, 0, -5 -5" transform="rotate(0,50,30)"/><rect x="45" y="35" width="10" height="10" transform="rotate(0,50,40)"/><path d="M 45 45v 10h 10v -5a 5 5, 0, 0, 0, -5 -5" transform="rotate(90,50,50)"/><path clip-rule="evenodd" d="M 225 30v 20a 25 25, 0, 0, 0, 25 25h 20a 25 25, 0, 0, 0, 25 -25v -20a 25 25, 0, 0, 0, -25 -25h -20a 25 25, 0, 0, 0, -25 25M 250 15h 20a 15 15, 0, 0, 1, 15 15v 20a 15 15, 0, 0, 1, -15 15h -20a 15 15, 0, 0, 1, -15 -15v -20a 15 15, 0, 0, 1, 15 -15" transform="rotate(90,260,40)"/><path d="M 245 25v 10h 10v -5a 5 5, 0, 0, 0, -5 -5" transform="rotate(-90,250,30)"/><rect x="245" y="35" width="10" height="10" transform="rotate(0,250,40)"/><path d="M 245 45v 10h 10v -5a 5 5, 0, 0, 0, -5 -5" transform="rotate(180,250,50)"/><rect x="255" y="25" width="10" height="10" transform="rotate(0,260,30)"/><rect x="255" y="35" width="10" height="10" transform="rotate(0,260,40)"/><rect x="255" y="45" width="10" height="10" transform="rotate(0,260,50)"/><path d="M 265 25v 10h 10v -5a 5 5, 0, 0, 0, -5 -5" transform="rotate(0,270,30)"/><rect x="265" y="35" width="10" height="10" transform="rotate(0,270,40)"/><path d="M 265 45v 10h 10v -5a 5 5, 0, 0, 0, -5 -5" transform="rotate(90,270,50)"/><path clip-rule="evenodd" d="M 5 250v 20a 25 25, 0, 0, 0, 25 25h 20a 25 25, 0, 0, 0, 25 -25v -20a 25 25, 0, 0, 0, -25 -25h -20a 25 25, 0, 0, 0, -25 25M 30 235h 20a 15 15, 0, 0, 1, 15 15v 20a 15 15, 0, 0, 1, -15 15h -20a 15 15, 0, 0, 1, -15 -15v -20a 15 15, 0, 0, 1, 15 -15" transform="rotate(-90,40,260)"/><path d="M 25 245v 10h 10v -5a 5 5, 0, 0, 0, -5 -5" transform="rotate(-90,30,250)"/><rect x="25" y="255" width="10" height="10" transform="rotate(0,30,260)"/><path d="M 25 265v 10h 10v -5a 5 5, 0, 0, 0, -5 -5" transform="rotate(180,30,270)"/><rect x="35" y="245" width="10" height="10" transform="rotate(0,40,250)"/><rect x="35" y="255" width="10" height="10" transform="rotate(0,40,260)"/><rect x="35" y="265" width="10" height="10" transform="rotate(0,40,270)"/><path d="M 45 245v 10h 10v -5a 5 5, 0, 0, 0, -5 -5" transform="rotate(0,50,250)"/><rect x="45" y="255" width="10" height="10" transform="rotate(0,50,260)"/><path d="M 45 265v 10h 10v -5a 5 5, 0, 0, 0, -5 -5" transform="rotate(90,50,270)"/></clipPath></defs><rect x="0" y="0" height="300" width="300" clip-path="url('#clip-path-background-color')" fill="#fff"/><rect x="5" y="5" height="290" width="290" clip-path="url('#clip-path-dot-color')" fill="#000"/></svg>